<?xml version="1.0" standalone="no"?>
<!DOCTYPE svg PUBLIC "-//W3C//DTD SVG 1.1//EN" "http://www.w3.org/Graphics/SVG/1.1/DTD/svg11.dtd" >
<!--
2013-9-30: Created.
-->
<svg>
<metadata>
Created by iconfont
</metadata>
<defs>

<font id="iconfont" horiz-adv-x="1024" >
  <font-face
    font-family="iconfont"
    font-weight="500"
    font-stretch="normal"
    units-per-em="1024"
    ascent="896"
    descent="-128"
  />
    <missing-glyph />
    
    <glyph glyph-name="x" unicode="x" horiz-adv-x="1001"
d="M281 543q-27 -1 -53 -1h-83q-18 0 -36.5 -6t-32.5 -18.5t-23 -32t-9 -45.5v-76h912v41q0 16 -0.5 30t-0.5 18q0 13 -5 29t-17 29.5t-31.5 22.5t-49.5 9h-133v-97h-438v97zM955 310v-52q0 -23 0.5 -52t0.5 -58t-10.5 -47.5t-26 -30t-33 -16t-31.5 -4.5q-14 -1 -29.5 -0.5
t-29.5 0.5h-32l-45 128h-439l-44 -128h-29h-34q-20 0 -45 1q-25 0 -41 9.5t-25.5 23t-13.5 29.5t-4 30v167h911zM163 247q-12 0 -21 -8.5t-9 -21.5t9 -21.5t21 -8.5q13 0 22 8.5t9 21.5t-9 21.5t-22 8.5zM316 123q-8 -26 -14 -48q-5 -19 -10.5 -37t-7.5 -25t-3 -15t1 -14.5
t9.5 -10.5t21.5 -4h37h67h81h80h64h36q23 0 34 12t2 38q-5 13 -9.5 30.5t-9.5 34.5q-5 19 -11 39h-368zM336 498v228q0 11 2.5 23t10 21.5t20.5 15.5t34 6h188q31 0 51.5 -14.5t20.5 -52.5v-227h-327z" />
    

    
    <glyph glyph-name="xiangji1" unicode="&#58943;" d="M1100.209938 665.755077 877.816563 665.755077l-40.132522 76.021075c-19.306475 39.778248-39.52645 70.223862-70.223862 70.223862l-369.856313 0c-31.834896 0-42.574379-26.842851-63.492654-69.084915l-41.517412-77.160022-222.369952 0c-38.782767 0-70.223862-31.441095-70.223862-70.223862l0-737.307368c0-38.782767 31.441095-70.223862 70.223862-70.223862l1029.986091 0c38.782767 0 70.223862 31.441095 70.223862 70.223862l0 737.307368C1170.4338 634.315446 1138.992705 665.755077 1100.209938 665.755077L1100.209938 665.755077zM1097.305476-103.763419c0-19.391384-15.719816-35.111199-35.111199-35.111199l-953.981119 0c-19.391384 0-35.111199 15.719816-35.111199 35.111199l0 661.233591c0 19.391384 15.719816 35.111199 28.797215 35.111199l213.210063 0c50.718291 0 78.806958 146.321062 108.068242 146.321062l324.985008 0c30.040102 0 56.568206-146.321062 105.72447-146.321062l201.994799 0c25.705368 0 41.425184-15.719816 41.425184-35.111199L1097.30694-103.763419 1097.305476-103.763419zM585.474547 446.885412c-121.204199 0-219.455242-98.249579-219.455242-219.442067 0-121.198343 98.251043-219.442067 219.455242-219.442067 121.198343 0 219.447923 98.243724 219.447923 219.442067C804.922469 348.635833 706.67289 446.885412 585.474547 446.885412L585.474547 446.885412zM585.216893 80.836814c-80.802311 0-146.303495 65.49972-146.303495 146.297639s65.505575 146.297639 146.303495 146.297639c80.796456 0 146.303495-65.49972 146.303495-146.297639S666.013349 80.836814 585.216893 80.836814L585.216893 80.836814zM146.228819 519.436943l146.296175 0 0-73.151747-146.296175 0L146.228819 519.436943 146.228819 519.436943zM146.228819 519.436943"  horiz-adv-x="1171" />

    
    <glyph glyph-name="back" unicode="&#59031;" d="M363.840919 423.021263C336.938714 398.641139 337.301807 358.513862 364.730379 334.513862L673.951902 63.94503C682.818816 56.186481 696.296418 57.084988 704.05497 65.951902 711.813519 74.818816 710.915012 88.296418 702.048098 96.05497L392.826577 366.623802C384.59578 373.825747 384.502227 384.164713 392.492414 391.40582L702.325747 672.192277C711.056111 680.104171 711.719614 693.595384 703.807723 702.325748 695.895829 711.056111 682.404617 711.719614 673.674253 703.807722L363.840919 423.021263Z"  horiz-adv-x="1024" />

    
    <glyph glyph-name="cart" unicode="&#59032;" d="M235.097303 196.866982C247.384597 160.417152 286.382106 132.376068 324.772759 132.376068L861.658537 132.376068 880.429732 132.376068 885.649214 150.541854 1009.08775 580.154957C1021.388907 622.967661 993.187631 660.786325 949.051586 660.786325L424.585365 660.786325C410.791718 660.786325 399.609756 649.520738 399.609756 635.623932 399.609756 621.727125 410.791718 610.461538 424.585365 610.461538L949.051586 610.461538C959.924 610.461538 964.161052 604.779539 961.106394 594.148171L837.667859 164.535068 861.658537 182.700855 324.772759 182.700855C307.742153 182.700855 287.789837 197.047529 282.395194 213.050549L73.600164 832.433664C69.16437 845.592294 54.980454 852.636656 41.919502 848.167687 28.858551 843.698719 21.86648 829.408727 26.302275 816.250097L235.097303 196.866982ZM399.609756-6.017094C399.609756 49.570129 354.881911 94.632478 299.707317 94.632478 244.532723 94.632478 199.804878 49.570129 199.804878-6.017094 199.804878-61.604318 244.532723-106.666667 299.707317-106.666667 354.881911-106.666667 399.609756-61.604318 399.609756-6.017094ZM249.756098-6.017094C249.756098 21.776518 272.120021 44.307693 299.707317 44.307693 327.294613 44.307693 349.658537 21.776518 349.658537-6.017094 349.658537-33.810705 327.294613-56.341879 299.707317-56.341879 272.120021-56.341879 249.756098-33.810705 249.756098-6.017094ZM924.097562-6.017094C924.097562 49.570129 879.369715 94.632478 824.195121 94.632478 769.020529 94.632478 724.292683 49.570129 724.292683-6.017094 724.292683-61.604318 769.020529-106.666667 824.195121-106.666667 879.369715-106.666667 924.097562-61.604318 924.097562-6.017094ZM774.243902-6.017094C774.243902 21.776518 796.607825 44.307693 824.195121 44.307693 851.782419 44.307693 874.146342 21.776518 874.146342-6.017094 874.146342-33.810705 851.782419-56.341879 824.195121-56.341879 796.607825-56.341879 774.243902-33.810705 774.243902-6.017094Z"  horiz-adv-x="1024" />

    
    <glyph glyph-name="close" unicode="&#59034;" d="M176.661601 78.827119C168.472798 70.355945 168.701706 56.850364 177.172881 48.661562 185.644056 40.472759 199.149636 40.701668 207.338438 49.172843L826.005105 689.172843C834.193907 697.644017 833.964998 711.149597 825.493824 719.338399 817.02265 727.527202 803.517069 727.298294 795.328267 718.827119L176.661601 78.827119ZM795.328267 49.172843C803.517069 40.701668 817.02265 40.472759 825.493824 48.661562 833.964998 56.850364 834.193907 70.355945 826.005105 78.827119L207.338438 718.827119C199.149636 727.298294 185.644056 727.527202 177.172881 719.338399 168.701706 711.149597 168.472798 697.644017 176.661601 689.172843L795.328267 49.172843Z"  horiz-adv-x="1024" />

    
    <glyph glyph-name="favorite" unicode="&#59040;" d="M471.864 811.902c13.811 30.163 21.181 30.093 34.224-0.246l113.657-264.368c5.418-12.603 20.222-18.509 33.066-13.193 12.844 5.316 18.863 19.843 13.445 32.445l-113.657 264.368c-30.206 70.26-94.92 70.878-126.782 1.293l-119.214-260.358c-5.713-12.477-0.036-27.135 12.679-32.741 12.715-5.606 27.654-0.036 33.367 12.441l119.214 260.358zM946.329 487.517c33.504-3.568 35.713-10.467 10.338-32.014l-221.116-187.76c-10.541-8.951-11.691-24.591-2.569-34.934 9.122-10.343 25.062-11.472 35.602-2.521l221.116 187.76c58.765 49.9 39.366 110.483-37.925 118.713l-289.19 30.796c-13.858 1.476-26.312-8.351-27.816-21.95-1.504-13.598 8.511-25.818 22.37-27.294l289.19-30.796zM789.292-62.035c6.895-32.368 0.891-36.562-27.835-19.54l-250.315 148.326c-11.933 7.071-27.448 3.311-34.654-8.398-7.206-11.709-3.374-26.933 8.558-34.003l250.315-148.326c66.525-39.42 119.25-2.596 103.343 72.076l-59.516 279.391c-2.852 13.389-16.226 21.974-29.87 19.175-13.645-2.799-22.394-15.921-19.542-29.31l59.516-279.391zM232.774-79.365c-29.242-16.437-35.162-12.129-27.541 19.938l66.413 279.431c3.166 13.321-5.273 26.638-18.848 29.744-13.575 3.107-27.147-5.174-30.313-18.494l-66.413-279.431c-17.65-74.263 34.334-112.087 101.794-74.168l252.408 141.877c12.096 6.799 16.284 21.932 9.355 33.801-6.929 11.869-22.352 15.979-34.447 9.18l-252.408-141.877zM129.994 382.712c-47.892 42.601-47.892 42.601-87.801 78.102-10.328 9.187-26.29 8.419-35.652-1.715-9.363-10.134-8.58-25.796 1.747-34.983 39.91-35.501 39.91-35.501 87.801-78.102l127.711-113.604c10.328-9.187 26.29-8.419 35.652 1.715 9.363 10.134 8.58 25.796-1.748 34.983-31.928 28.401-31.928 28.401-127.711 113.604zM180.395 501.737c9.971 0.995 20.266 2.053 30.828 3.164 25.45 2.678 51.3 5.546 76.212 8.415 8.72 1.004 16.7 1.936 23.775 2.773 4.251 0.503 7.25 0.862 8.857 1.056 13.835 1.672 23.67 14.032 21.966 27.608-1.704 13.576-14.3 23.226-28.136 21.554-1.549-0.187-4.524-0.543-8.731-1.041-7.023-0.831-14.95-1.757-23.614-2.755-24.756-2.85-50.444-5.701-75.712-8.36-10.473-1.102-20.677-2.15-30.553-3.136-20.542-2.05-39.363-3.801-56.079-5.2-13.889-1.162-24.189-13.152-23.005-26.781 1.184-13.629 13.403-23.735 27.293-22.573 17.016 1.423 36.103 3.199 56.9 5.275z"  horiz-adv-x="1024" />

    
    <glyph glyph-name="refresh" unicode="&#59050;" d="M512 896C229.230208 896 0 666.769792 0 384 0 101.230208 229.230208-128 512-128 761.325865-128 973.201958 51.440486 1016.153097 294.235322 1018.151127 305.529818 1019.771663 316.910818 1021.010022 328.364361 1022.492753 342.078084 1012.577574 354.397246 998.863851 355.879979 985.150125 357.362709 972.830963 347.447531 971.348233 333.733807 970.230573 323.396631 968.768273 313.126908 966.965602 302.936738 928.217702 83.902033 736.992706-78.048781 512-78.048781 256.817504-78.048781 49.951219 128.817504 49.951219 384 49.951219 639.182496 256.817504 846.048781 512 846.048781 698.044361 846.048781 863.703281 735.083433 936.293348 567.2457 941.768939 554.585421 956.470965 548.761079 969.131243 554.236668 981.791522 559.712258 987.615863 574.414283 982.140273 587.074562 901.710383 773.038993 718.143277 896 512 896ZM958.442797 545.753446 983.418406 570.729056 724.292683 570.729056C710.499034 570.729056 699.317073 559.547093 699.317073 545.753446 699.317073 531.959797 710.499034 520.777837 724.292683 520.777837L983.418406 520.777837C997.212055 520.777837 1008.394016 531.959797 1008.394016 545.753446L1008.394016 821.073171C1008.394016 834.866819 997.212055 846.048781 983.418406 846.048781 969.624757 846.048781 958.442797 834.866819 958.442797 821.073171L958.442797 545.753446Z"  horiz-adv-x="1024" />

    
    <glyph glyph-name="smile" unicode="&#59055;" d="M1024 384C1024 666.769792 794.769792 896 512 896 229.230208 896 0 666.769792 0 384 0 101.230208 229.230208-128 512-128 629.410831-128 740.826187-88.331046 830.768465-16.686662 841.557579-8.092491 843.33693 7.620766 834.742758 18.409879 826.148587 29.198991 810.43533 30.978342 799.646219 22.384173 718.470035-42.277495 618.001779-78.048781 512-78.048781 256.817504-78.048781 49.951219 128.817504 49.951219 384 49.951219 639.182496 256.817504 846.048781 512 846.048781 767.182496 846.048781 974.048781 639.182496 974.048781 384 974.048781 296.507166 949.714859 212.663236 904.470807 140.039307 897.177109 128.331757 900.755245 112.928203 912.462793 105.634507 924.170342 98.340809 939.573897 101.918942 946.867595 113.626492 997.013826 194.119204 1024 287.101621 1024 384ZM337.170731 396.487806C371.654852 396.487806 399.609756 424.442709 399.609756 458.926829 399.609756 493.41095 371.654852 521.365854 337.170731 521.365854 302.686611 521.365854 274.731708 493.41095 274.731708 458.926829 274.731708 424.442709 302.686611 396.487806 337.170731 396.487806ZM711.804879 396.487806C746.288998 396.487806 774.243902 424.442709 774.243902 458.926829 774.243902 493.41095 746.288998 521.365854 711.804879 521.365854 677.320757 521.365854 649.365854 493.41095 649.365854 458.926829 649.365854 424.442709 677.320757 396.487806 711.804879 396.487806ZM352.788105 127.229033C396.165222 92.527339 453.151987 71.804879 524.487806 71.804879 595.823622 71.804879 652.810387 92.527339 696.187505 127.229033 722.700531 148.439454 738.882517 170.015435 746.631548 185.513495 752.800254 197.850908 747.799529 212.853084 735.462114 219.021792 723.124702 225.190498 708.122526 220.189773 701.953818 207.852358 701.03616 206.017043 698.492224 201.827031 694.165854 196.058537 686.602473 185.974029 676.927317 175.789655 664.983226 166.234383 630.311565 138.497052 584.273939 121.756098 524.487806 121.756098 464.70167 121.756098 418.664045 138.497052 383.992384 166.234383 372.048292 175.789655 362.373137 185.974029 354.809756 196.058537 350.483386 201.827031 347.93945 206.017043 347.021792 207.852358 340.853084 220.189773 325.850908 225.190498 313.513495 219.021792 301.176081 212.853084 296.175356 197.850908 302.344062 185.513495 310.093092 170.015435 326.275078 148.439454 352.788105 127.229033Z"  horiz-adv-x="1024" />

    
    <glyph glyph-name="account" unicode="&#59064;" d="M793.6 579.008546C793.6 742.296018 661.792629 874.666667 499.2 874.666667 336.607371 874.666667 204.8 742.296018 204.8 579.008546 204.8 415.721077 336.607371 283.350428 499.2 283.350428 661.792629 283.350428 793.6 415.721077 793.6 579.008546ZM256 579.008546C256 713.898197 364.88435 823.247863 499.2 823.247863 633.51565 823.247863 742.4 713.898197 742.4 579.008546 742.4 444.118897 633.51565 334.769231 499.2 334.769231 364.88435 334.769231 256 444.118897 256 579.008546ZM0-102.290598 0-128 25.6-128 486.4-128 998.4-128 1024-128 1024-102.290598C1024 128.537329 787.090923 334.769231 512 334.769231 495.448045 334.769231 478.989086 334.099108 462.660538 332.767422 448.568439 331.618131 485.255599 319.213724 486.4 305.061404 501.350035 306.280663 496.831226 283.350428 512 283.350428 760.310844 283.350428 972.8 98.376331 972.8-102.290598L998.4-76.581197 486.4-76.581197 25.6-76.581197 51.2-102.290598C51.2 34.242573 137.013906 159.054662 275.263548 228.560915 287.906261 234.917154 293.024384 250.362647 286.695191 263.05939 280.366001 275.756134 264.986234 280.896128 252.34352 274.539889 97.581613 196.731947 0 54.804309 0-102.290598Z"  horiz-adv-x="1024" />

    
    <glyph glyph-name="youxiang" unicode="&#58888;" d="M860.417-34.919l-28.649-0.184c10.758 0 20.249 0.014 28.649 0.184zM196.642-35.103l-37.463 0.241c10.4-0.288 22.76-0.241 37.463-0.241zM1014.972 420.817c0 25.14-20.361 45.523-45.523 45.523-25.117 0-45.523-20.383-45.523-45.523l0.324-366.313-0.014 1.438c0-79.523-0.741-89.594-63.82-90.863l63.911 0.41 0.001-0.614-819.415-0.36-0.001 0.969 54.266-0.348c-42.089 1.162-51.972 7.824-54.292 45.359l-0.31 536.514c1.688 44.59 10.454 53.202 55.743 54.859l691.034 0.319-338.071-303.372-240.386 199.4c-17.783 17.783-46.601 17.783-64.384 0-17.782-17.782-17.782-46.612 0-64.372l264.231-219.193c1.99-3.541 4.477-6.877 7.487-9.891 11.673-11.657 28.105-15.662 43.048-12.016 9.12 1.467 17.878 5.703 24.903 12.727 2.601 2.601 4.81 5.443 6.649 8.447l445.676 399.953c0.114 0.103 0.229 0.204 0.342 0.308l1.165 1.045c0.823 0.824 1.595 1.679 2.342 2.548 2.738 3.122 5.049 6.625 6.859 10.413-11.024 37.144-45.107 64.37-85.658 65.084l-829.626-0.384c-45.439-4.248-81.182-41.888-82.434-88.133l0.376-648.481c4.357-46.224 43.272-82.4 90.635-82.4h48.368v-0.379l771.050 0.379c50.281 0 91.047 40.767 91.047 91.047v45.523h0.363l-0.363 410.375zM104.546 601.843l28.328 0.013-28.328-0.182v0.169z"  horiz-adv-x="1024" />

    
    <glyph glyph-name="icondownload" unicode="&#59156;" d="M995.84-140l-967.68 0c-15.36 0-28.16 12.8-28.16 28.16l0 0c0 15.36 12.8 28.16 28.16 28.16l967.68 0c15.36 0 28.16-12.8 28.16-28.16l0 0c0-15.36-12.8-28.16-28.16-28.16zM926.72 507.68l0 0c-10.24 10.24-30.72 10.24-40.96 0l-348.16-345.6 0 693.76c0 15.36-10.24 28.16-25.6 28.16s-25.6-12.8-25.6-28.16l0-693.76-348.16 345.6c-10.24 10.24-30.72 10.24-40.96 0-10.24-10.24-10.24-28.16 0-40.96l394.24-394.24c2.56-2.56 2.56-2.56 5.12-2.56 0 0 2.56-2.56 2.56-2.56 7.68-2.56 15.36-2.56 23.04 0 2.56 0 2.56 2.56 2.56 2.56 2.56 0 5.12 2.56 5.12 2.56l394.24 394.24c12.8 12.8 12.8 30.72 2.56 40.96z"  horiz-adv-x="1024" />

    
    <glyph glyph-name="youxiang1" unicode="&#58951;" d="M1023.956 445.741c0 11.864-9.42 21.461-21.084 21.461s-21.084-9.598-21.084-21.461l0-42.657 0-66.574 0-269.271c0-26.882-21.772-48.699-48.7-48.699L90.705 18.54c-26.883 0-48.7 21.817-48.7 48.699L42.005 702.593c0 26.894 21.817 48.711 48.7 48.711l842.383 0c4.933 0 9.599-0.956 14.086-2.311L513.763 360.061 244.291 583.575c-6.221 6.077-12.33 8.598-18.795 8.598-6.487 0-12.597-2.521-17.196-7.121-4.599-4.577-7.109-10.687-7.109-17.185 0-6.477 2.511-12.564 7.087-17.129L488.901 318.07l2.133-3.777c1.133-1.955 2.466-3.732 3.977-5.243 6.087-6.088 14.908-8.487 23.083-6.487 6.865 1.155 11.486 3.555 15.152 7.198 1.288 1.288 2.511 2.844 3.532 4.532l4.377 5.199 86.514 77.682-0.223 0.245L949.64 686.107l30.749 27.604c0-0.011 0-0.022 0-0.044l32.726 29.337c-15.552 31.337-46.789 52.999-83.203 52.999L93.881 796.003c-51.81 0-93.845-43.457-93.845-97.066l0-630.811c0-53.587 42.035-97.044 93.845-97.044l836.03 0c51.854 0 93.89 43.457 93.89 97.044L1023.801 335.71c0 0.312 0.155 0.533 0.155 0.8L1023.956 445.741z"  horiz-adv-x="1024" />

    
    <glyph glyph-name="lnicon20" unicode="&#58894;" d="M793.159071 790.11898 230.840929 790.11898C161.82681 790.11898 105.88102 734.17319 105.88102 665.159071l0-562.318142c0-69.011218 55.94579-124.959909 124.959909-124.959909l562.318142 0c69.014119 0 124.959909 55.948691 124.959909 124.959909L918.11898 665.159071C918.11898 734.17319 862.17319 790.11898 793.159071 790.11898zM755.999184 513.905858 458.386493 214.465632c-0.58017-0.748419-0.832544-1.618674-1.53455-2.323581-11.577292-11.577292-30.374799-11.577292-41.954992 0l-146.896136 146.899037c-11.577292 11.577292-11.577292 30.374799 0 41.952091 11.577292 11.577292 30.374799 11.577292 41.992703 0l125.444351-125.44145 278.565711 280.306221c11.617904 11.577292 30.371898 11.577292 41.992703 0C767.576476 544.280657 767.576476 525.480249 755.999184 513.905858z"  horiz-adv-x="1024" />

    
    <glyph glyph-name="weibiaoti1" unicode="&#58919;" d="M950.857 429.851c0 10.269-8.075 18.549-18.052 18.549-10.006 0-18.11-8.28-18.11-18.549v-327.212c0-23.259-18.637-42.101-41.721-42.101h-722.096c-23.113 0-41.808 18.871-41.808 42.101v549.274c0 23.23 18.695 42.072 41.808 42.072h722.096c4.242 0 8.221-0.819 12.054-1.96l-371.536-336.252-230.985 193.214c-5.325 5.266-10.562 7.461-16.15 7.461-5.5 0-10.767-2.194-14.716-6.144-3.92-3.979-6.056-9.245-6.056-14.892 0-5.588 2.136-10.825 6.056-14.804l240.523-201.114 1.843-3.306c1.024-1.668 2.136-3.218 3.423-4.506 5.266-5.266 12.815-7.344 19.836-5.617 5.822 1.024 9.801 3.101 12.961 6.29 1.053 1.053 2.107 2.458 2.984 3.862l3.774 4.476 74.196 67.174-0.234 0.234 330.576 298.774c-13.283 27.063-40.082 45.787-71.329 45.787h-716.654c-44.412-0.029-80.399-37.566-80.399-83.939v-545.353c0-46.343 35.986-83.88 80.399-83.88h716.683c44.471 0 80.516 37.537 80.516 83.88v231.307c0 0.293 0.117 0.497 0.117 0.702v94.471zM950.857 429.851z"  horiz-adv-x="1024" />

    
    <glyph glyph-name="xinfeng2" unicode="&#58899;" d="M959.0272 567.40864c-16.4352 0-29.76768-13.32224-29.76768-29.76768l0-454.6048c0-12.8512-7.8336-21.80096-14.86848-21.80096L110.6944 61.2352c-7.03488 0-14.86848 8.94976-14.86848 21.80096L95.82592 676.67968l203.6224-203.64288c0.03072-0.03072 0.07168-0.0512 0.1024-0.08192l191.50848-191.52896c5.81632-5.80608 13.42464-8.71424 21.0432-8.71424s15.23712 2.89792 21.05344 8.71424c0.2048 0.2048 0.34816 0.4608 0.54272 0.6656l395.55072 395.54048 36.11648 36.11648 0.4608 0.4608c5.24288 5.36576 8.52992 12.67712 8.52992 20.76672 0 8.04864-3.26656 15.28832-8.45824 20.65408-0.31744 0.34816-0.70656 0.58368-1.03424 0.91136-13.85472 14.11072-31.65184 21.99552-50.49344 21.99552L110.6944 778.53696c-41.03168 0-74.40384-36.49536-74.40384-81.34656L36.29056 83.0464c0-44.8512 33.37216-81.33632 74.40384-81.33632l803.69664 0c41.03168 0 74.40384 36.48512 74.40384 81.33632L988.79488 537.64096C988.79488 554.0864 975.4624 567.40864 959.0272 567.40864zM512.0512 344.61696l-186.88 186.89024c-0.02048 0.02048-0.03072 0.03072-0.0512 0.04096L137.68704 718.99136l748.76928 0L512.0512 344.61696z"  horiz-adv-x="1024" />

    
    <glyph glyph-name="suokai" unicode="&#58903;" d="M717.587 394.168c-110.131 0.069-220.273 0.751-330.392-0.587-22.197-0.268-26.602 7.041-26.055 26.941 1.226 44.736-0.192 89.533 0.575 134.289 1.373 80.056 68.588 145.4 149.057 145.799 82.234 0.404 149.962-64.635 151.643-145.951 0.503-24.163 0.404-48.352 0.046-72.521-0.23-15.275 4.185-27.849 21.156-28.18 16.933-0.337 22.221 11.746 22.026 27.261-0.305 24.175 0.263 48.353-0.184 72.522-1.828 98.911-79.173 181.398-177.354 189.447-97.822 8.018-186.401-57.909-205.029-155.045-10.852-56.612-3.098-114.295-4.127-171.468-0.278-15.605-0.827-23.481-20.467-23.108-40.682 0.761-60.45-20.514-60.55-61.3-0.218-87.742-0.252-175.491 0.013-263.239 0.126-41.951 20.538-61.752 63.21-61.857 69.839-0.173 139.679-0.047 209.518-0.047 69.839 0 139.681-0.074 209.52 0.026 47.271 0.068 65.958 19.107 66 67.176 0.074 84.167 0.068 168.334 0 252.496-0.042 49.246-18.435 67.318-68.604 67.349zM743.625 75.714c0.235-19.7-4.858-26.163-25.382-26.032-137.912 0.867-275.83 0.82-413.739 0.026-19.451-0.109-24.158 6.374-23.982 24.688 0.803 84.173 1.068 168.372-0.142 252.534-0.312 21.554 8.046 24.882 26.801 24.62 68.048-0.945 136.119-0.372 204.183-0.372 68.955 0 137.927-0.75 206.862 0.463 20.561 0.362 25.634-6.384 25.397-26.074-0.997-83.276-1.002-166.577 0.001-249.851zM521.818 291.514c-32.337 4.92-64.020-14.67-75.425-46.63-11.388-31.914 0.163-66.881 31.015-82.156 15.636-7.739 20.615-16.345 18.697-32.391-1.423-11.924-0.451-25.354 15.479-25.738 15.957-0.378 18.042 12.78 16.329 24.872-2.494 17.606 4.595 26.149 20.404 34.019 23.355 11.609 32.848 33.898 33.625 54.365-0.586 39.551-26.009 68.477-60.123 73.659zM513.17 179.234c-23.848-0.609-44.504 19.927-44.047 43.785 0.43 22.713 20.382 42.162 43.123 42.052 22.773-0.109 42.477-19.7 42.709-42.461 0.226-22.746-19.081-42.798-41.785-43.376z"  horiz-adv-x="1024" />

    
    <glyph glyph-name="iconfonticonfontcheckboxoutlineblank" unicode="&#58891;" d="M1084.950557 896 288.508658 896C225.892442 896 174.729607 844.808522 174.729607 782.220949l0-796.441898c0-62.58614 51.162834-113.779051 113.779051-113.779051l796.441898 0c62.609056 0 113.777619 51.192911 113.777619 113.779051L1198.728175 782.220949C1198.729607 844.798496 1147.559612 896 1084.950557 896L1084.950557 896zM530.280011 59.734073 274.286814 315.735864l79.607955 79.639464 176.386674-176.363759L1019.560149 708.264494l79.615116-79.642328L530.280011 59.734073 530.280011 59.734073zM530.280011 59.734073"  horiz-adv-x="1375" />

    
    <glyph glyph-name="dagou" unicode="&#58889;" d="M512 896C229.227789 896 0 666.772211 0 384c0-282.758737 229.227789-512 512-512 282.758737 0 512 229.241263 512 512C1024 666.772211 794.758737 896 512 896zM512-101.052632C244.116211-101.052632 26.947368 116.116211 26.947368 384 26.947368 651.883789 244.116211 869.052632 512 869.052632c267.883789 0 485.052632-217.168842 485.052632-485.052632C997.052632 116.116211 779.883789-101.052632 512-101.052632zM209.960421 348.065684c0 0-10.105263 38.184421 25.829053 22.460632l162.802526-161.684211c0 0 19.092211-19.078737 31.434105 0L771.368421 573.749895c0 0 30.329263 14.592 28.079158-16.842105L440.144842 171.789474c0 0-23.578947-21.328842-49.408 0L209.960421 348.065684z"  horiz-adv-x="1024" />

    
    <glyph glyph-name="iconfont" unicode="&#58942;" d="M954.6819 712.885 764.786838 712.885l-34.2652 64.914c-16.4855 33.963-33.7485 59.9593-59.9618 59.9593L354.754029 837.7583c-27.1847 0-36.3508-22.9175-54.2155-58.989l-35.4484-65.8853L75.219092 712.884c-33.1159 0-59.9618-26.8448-59.9618-59.9593l0-629.556161c0-33.1145 26.8459-59.9593 59.9618-59.9593l879.461783 0c33.1159 0 59.9618 26.8448 59.9618 59.9593L1014.642675 652.925668C1014.6437 686.0402 987.7978 712.885 954.6819 712.885zM952.2025 55.8235c0-16.5568-13.4234-29.9797-29.9809-29.9797L107.654431 25.8438c-16.5575 0-29.9809 13.4229-29.9809 29.9797L77.673531 620.423705c0 16.5568 13.4234 29.9797 24.5883 29.9797l182.053032 0c43.3054 0 67.2901 124.9403 92.2742 124.9403l277.490239 0c25.6507 0 48.3022-124.9403 90.2755-124.9403l172.474134 0c21.951 0 35.3735-13.4229 35.3735-29.9797L952.202436 55.823504zM515.1678 525.9997c-103.4881 0-187.3806-83.8891-187.3806-187.373s83.8926-187.373 187.3806-187.373 187.3806 83.8891 187.3806 187.373S618.6559 525.9997 515.1678 525.9997zM514.95 213.4486c-68.9921 0-124.9204 55.9271-124.9204 124.9153 0 68.9892 55.9284 124.9153 124.9204 124.9153 68.9911 0 124.9204-55.9261 124.9204-124.9153C639.8704 269.3757 583.941 213.4486 514.95 213.4486zM140.1138 587.9507l124.9204 0 0-62.4646-124.9204 0 0 62.4646Z"  horiz-adv-x="1024" />

    
    <glyph glyph-name="iconsuo" unicode="&#58893;" d="M586.36008 246.876969c0 41.068348-33.292244 74.360592-74.360592 74.360592s-74.360592-33.292244-74.360592-74.360592c0-34.709523 23.782659-63.86147 55.94108-72.057129l0-58.925041c0-10.172687 8.246825-18.419512 18.419512-18.419512s18.419512 8.246825 18.419512 18.419512l0 58.925041C562.577421 183.015499 586.36008 212.167446 586.36008 246.876969zM511.999488 209.355401c-20.689205 0-37.521568 16.83134-37.521568 37.521568s16.832364 37.521568 37.521568 37.521568c20.689205 0 37.521568-16.83134 37.521568-37.521568S532.688693 209.355401 511.999488 209.355401zM825.131185 449.491597 291.050284 449.491597l0 89.027639-0.084934 0c0 29.994128 5.865591 59.071374 17.435091 86.423325 11.18269 26.438139 27.198455 50.190099 47.604204 70.594825 20.405749 20.404726 44.156686 36.421514 70.594825 47.604204 27.351951 11.5695 56.43022 17.435091 86.423325 17.435091s59.071374-5.865591 86.423325-17.435091c26.438139-11.18269 50.189076-27.198455 70.594825-47.604204 20.404726-20.404726 36.421514-44.156686 47.604204-70.594825 11.206226-26.495444 17.044188-54.611805 17.401322-83.609233l-0.00921 0 0-2.046612c0-10.172687 8.246825-18.419512 18.419512-18.419512 9.91379 0 17.975397 7.837502 18.380626 17.652032l0.081864 0c0 142.985552-115.91194 258.896468-258.896468 258.896468-142.984528 0-258.896468-115.910916-258.896468-258.896468l0-89.027639-55.258535 0c-20.345374 0-36.839023-16.492626-36.839023-36.839023l0-405.229255c0-20.345374 16.493649-36.839023 36.839023-36.839023l626.263393 0c20.345374 0 36.839023 16.493649 36.839023 36.839023l0 405.229255C861.970208 432.998971 845.476559 449.491597 825.131185 449.491597zM825.131185 7.423319l-626.263393 0 0 405.229255 626.263393 0L825.131185 7.423319z"  horiz-adv-x="1024" />

    
    <glyph glyph-name="huiyuan" unicode="&#58963;" d="M511.966231 823.547875c-236.602719 0-429.065126-192.462406-429.065126-429.001681 0-125.70191 54.437843-238.099816 140.631948-316.732711 19.688411 109.009739 115.267257 197.551308 223.043912 197.551308L577.363683 275.364791c107.641579 0 203.544813-88.541569 223.038796-197.551308 86.194104 78.631872 140.637064 191.094246 140.637064 316.732711C941.03852 631.085468 748.570997 823.547875 511.966231 823.547875L511.966231 823.547875zM615.241362 382.095627c-27.511587-27.582195-64.222697-42.838667-103.275131-42.838667-39.115879 0-75.691913 15.256472-103.274108 42.838667-27.577079 27.511587-42.768059 64.152089-42.768059 103.140055 0 39.052434 15.192004 75.628468 42.768059 103.275131 27.582195 27.577079 64.157205 42.703591 103.274108 42.703591 39.052434 0 75.763544-15.126512 103.275131-42.703591 27.641547-27.646664 42.833551-64.222697 42.833551-103.275131C658.074913 446.248739 642.883933 409.608238 615.241362 382.095627L615.241362 382.095627zM615.241362 382.095627M511.966231 833.65507c-248.272503 0-449.539436-201.330378-449.539436-449.603905 0-248.342088 201.266933-449.609021 449.539436-449.609021 248.408603 0 449.604928 201.266933 449.604928 449.609021C961.572182 632.323669 760.374834 833.65507 511.966231 833.65507L511.966231 833.65507zM511.966231-3.813606c-214.239386 0-387.863748 173.555801-387.863748 387.864772 0 214.239386 173.624363 387.859655 387.863748 387.859655 214.175941 0 387.864772-173.620269 387.864772-387.859655C899.831003 169.741171 726.142172-3.813606 511.966231-3.813606L511.966231-3.813606zM511.966231-3.813606"  horiz-adv-x="1024" />

    
    <glyph glyph-name="xiala" unicode="&#58920;" d="M940.851255 649.117147c-22.283516 21.267373-57.523111 20.413935-78.8263-1.832741l-349.889879-366.54828-349.889879 366.54828c-21.267373 22.246677-56.506968 23.11751-78.8263 1.832741-22.246677-21.248953-23.081695-56.542784-1.814322-78.80788l390.210189-408.792407c10.524704-11.014868 25.078165-17.257036 40.320311-17.257036 15.242146 0 29.795607 6.242168 40.320311 17.257036L942.6666 570.309266C963.932949 592.574363 963.098955 627.868193 940.851255 649.117147z"  horiz-adv-x="1024" />

    
    <glyph glyph-name="bi" unicode="&#58918;" d="M1040.757 510.317l-239.045 239.045 127.441 127.441c24.879 24.879 65.351 24.879 90.244 0l148.801-148.814c24.879-24.879 24.879-65.351 0-90.231l-127.441-127.441zM865.035 749.362l175.723-175.723 95.78 95.78c7.411 7.424 7.411 19.485 0 26.909l-148.814 148.814c-7.411 7.424-19.498 7.424-26.909 0l-95.78-95.78zM865.035 749.362zM156.889-133.863l0.295 237.581 676.060 677.178 239.045-239.045-676.137-676.124-239.264 0.411zM201.678 86.018l0.681-175.877 175.119 0.219 631.49 631.49-175.723 175.723-631.567-631.554zM201.678 86.018zM195.268 111.27l207.385-207.385-31.661-31.661-207.385 207.372 31.661 31.674zM195.268 111.27z"  horiz-adv-x="1366" />

    
    <glyph glyph-name="1" unicode="&#58906;" d="M512 860.5696C248.832 860.5696 35.4304 647.168 35.4304 384S248.832-92.5696 512-92.5696 988.5696 120.832 988.5696 384 775.168 860.5696 512 860.5696zM578.3552 55.5008l-80.896 0L497.4592 605.5936C438.272 551.3216 350.8224 531.456 350.8224 531.456l0 78.6432c115.712 33.792 197.0176 102.4 197.0176 102.4l30.5152 0L578.3552 55.5008z"  horiz-adv-x="1024" />

    
    <glyph glyph-name="yuangong" unicode="&#59686;" d="M326.925353 285.806607c22.88215 4.491291 44.300972 8.980535 61.358463 14.926968 7.036253 2.486634 12.015661 4.731768 15.474436 6.736425-17.844413 19.539009-32.651654 43.208081-44.12087 69.729108-13.899568 32.893154-21.48329 68.216661-21.970384 102.56291-0.546446 45.457308 2.305509 80.050174 8.195659 109.422132 8.615215 42.23594 24.39562 74.4005 48.366567 98.616018 7.950066 8.250918 16.871249 15.172561 26.339902 21.118993-13.352099 47.337121-42.605354 78.650291-104.686271 78.650291-102.626355 0-117.067252-81.503269-116.094088-179.393763 0.545422-49.884131 23.181979-101.833293 56.374962-131.387399 3.3984-2.972705 5.28333-7.344269 5.28333-11.955286 0-12.076036-0.791016-27.79402-5.037736-33.378202-23.003923-31.380708-80.758302-37.099966-133.099391-48.65514-10.214642-2.255367-29.727045-20.446681-29.727045-41.244356 0 0 0-134.032646 0-151.986553 0-17.954931 14.183024-28.172643 25.382087-28.172643 11.199063 0 23.230074 0 23.230074 0 6.795776 18.931165 14.866592 34.590819 23.968901 47.758724C202.395128 260.80212 268.606109 273.971048 326.925353 285.806607zM900.688022 382.800685c-52.339042 11.555174-110.095467 17.274432-133.099391 48.65514-4.244674 5.584182-5.036713 21.302165-5.036713 33.378202 0 4.611018 1.88493 8.981559 5.282307 11.955286 33.194006 29.553083 55.831586 81.502245 56.375985 131.387399 0.974188 97.889471-13.468756 179.393763-116.094088 179.393763-62.079894 0-91.333148-31.31317-104.686271-78.650291 9.467629-5.946432 18.389836-12.868075 26.338878-21.118993 23.970948-24.215518 39.751353-56.380078 48.367591-98.616018 5.889127-29.372981 8.742105-63.964824 8.194636-109.422132-0.485047-34.346249-8.069793-69.669756-21.968337-102.56291-11.470239-26.521027-26.27748-50.190099-44.121893-69.729108 3.458775-2.004657 8.43716-4.249791 15.474436-6.736425 17.058514-5.946432 38.477336-10.435677 61.359486-14.926968 58.319244-11.834536 124.529201-25.004487 160.761404-76.651774 9.102309-13.167904 17.171078-28.827559 23.968901-47.758724 0 0 12.031011 0 23.229051 0 11.199063 0 25.38311 10.217712 25.38311 28.172643 0 17.953907 0 151.986553 0 151.986553C930.41609 362.354004 910.903687 380.545318 900.688022 382.800685zM577.148277 282.715199c-4.671393 6.67605-5.519714 24.580838-5.218862 38.054711 0.060375 4.731768 2.366907 9.769504 5.949502 13.048177 37.077453 33.317827 62.204737 91.698468 62.204737 148.866493 0 109.23896-16.812921 199.478194-127.202077 199.478194-113.848954 0-129.87086-91.212398-128.782062-201.057155 0.546446-56.134485 25.554002-114.154923 62.631456-147.287531 3.764744-3.523243 5.89015-8.376785 5.89015-13.471826 0-13.534248-0.791016-31.074739-5.709025-37.565571-43.208081-59.474556-197.473537-36.597523-244.205884-103.112426-30.766724-43.995003-39.382962-139.519614-41.753963-180.300412-0.546446-10.255575 7.588839-18.937305 17.904789-18.937305l666.228617 0c10.1952 0 18.445094 8.623401 17.965164 18.937305-2.185782 40.842197-10.561543 137.212058-42.907229 180.240037C770.561335 244.545878 620.906897 223.242689 577.148277 282.715199z"  horiz-adv-x="1024" />

    
    <glyph glyph-name="yunpan" unicode="&#59036;" d="M720.896 58.368 265.792 58.368c-116.384 0-211.04 94.656-211.04 211.04 0 108.16 80.416 196.736 186.112 209.056 34.848 118.784 142.592 200.288 267.936 200.288 101.664 0 193.728-54.208 243.328-142.368 118.144-15.456 208.864-117.472 208.864-237.888C961.024 166.08 853.312 58.368 720.896 58.368zM508.8 630.752c-108.768 0-201.568-74.112-225.632-180.256-2.4-10.656-11.712-18.304-22.624-18.688-88.512-2.848-157.824-74.176-157.824-162.4 0-89.92 73.12-163.04 163.04-163.04l455.136 0c105.952 0 192.128 86.176 192.128 192.128 0 99.936-78.08 184-177.824 191.36-8.416 0.64-15.872 5.632-19.648 13.152C675.904 581.792 596.672 630.752 508.8 630.752zM634.624 301.6c-6.144 0-12.288 2.336-16.96 7.04l-109.792 109.792-109.76-109.792c-9.376-9.376-24.576-9.376-33.952 0s-9.376 24.576 0 33.952l126.72 126.752c8.992 8.992 24.928 8.992 33.952 0l126.752-126.752c9.376-9.376 9.376-24.576 0-33.952C646.912 303.968 640.768 301.6 634.624 301.6zM507.872 184c-13.248 0-24 10.752-24 24l0 244.384c0 13.248 10.752 24 24 24s24-10.752 24-24L531.872 208C531.872 194.752 521.12 184 507.872 184z"  horiz-adv-x="1024" />

    
    <glyph glyph-name="xiangji" unicode="&#58905;" d="M524.51964 509.146255c-113.347534 0-205.551516-92.213191-205.551516-205.553563 0-113.330138 92.203982-205.555609 205.551516-205.555609 113.334231 0 205.547423 92.225471 205.547423 205.555609C730.067063 416.933063 637.853871 509.146255 524.51964 509.146255zM524.51964 164.820092c-76.526931 0-138.777717 62.245669-138.777717 138.7726s62.250786 138.76953 138.777717 138.76953c76.518744 0 138.7726-62.2426 138.7726-138.76953S601.039407 164.820092 524.51964 164.820092zM863.630011 614.982722 730.067063 614.982722c0 57.305147-44.934398 102.33062-100.17042 102.33062l-166.942173 0c-55.236022 0-100.168374-45.025473-100.168374-102.33062L258.417049 614.982722l0 33.979906c0 18.438954-14.302751 33.387411-32.745798 33.387411-18.443048 0-32.745798-14.948457-32.745798-33.387411l0-33.979906-30.467919 0c-55.241139 0-99.491968-44.342927-99.491968-99.578949l0-434.059883c0-55.240115 44.249807-93.64889 99.491968-93.64889l701.172477 0c55.227836 0 95.751784 38.407752 95.751784 93.64889L959.381795 515.403772C959.381795 570.639794 918.857846 614.982722 863.630011 614.982722zM893.890198 81.343889c0-18.421558-11.842723-28.157293-30.260188-28.157293L162.457534 53.186595c-18.411325 0-34.000372 9.735735-34.000372 28.157293L128.457162 515.403772c0 18.405185 15.589047 35.110659 34.000372 35.110659l233.725182 0c18.441001 0 29.034267 13.228279 29.034267 31.673373L425.216983 615.570099c0 18.413372 19.324114 36.250622 37.739533 36.250622l166.942173 0c18.420535 0 31.702026-17.83725 31.702026-36.250622l0-33.383318c0-18.445094 16.619516-31.673373 35.07996-31.673373l166.949336 0c18.417465 0 30.260188-16.70445 30.260188-35.110659L893.890198 81.343889z"  horiz-adv-x="1024" />

    
    <glyph glyph-name="jiahao" unicode="&#58901;" d="M511.592536 745.878041c-11.250876-0.041355-20.3428-9.007999-20.303878-20.028992l0.842903-659.97517c0.040138-11.02221 9.191662-19.924389 20.446187-19.884251l0 0c11.250876 0.040138 20.345233 9.007999 20.303878 20.026559l-0.845336 659.976386C531.997368 737.013567 522.844628 745.918179 511.592536 745.878041L511.592536 745.878041zM862.02874 396.427049c-0.041355 11.250876-9.007999 20.3428-20.030208 20.303878l-659.973954-0.842903c-11.02221-0.040138-19.925605-9.191662-19.885467-20.446187l0 0c0.040138-11.250876 9.007999-20.346449 20.026559-20.305094l659.976386 0.845336C853.164266 376.021 862.067662 385.174956 862.02874 396.427049L862.02874 396.427049z"  horiz-adv-x="1024" />

    
    <glyph glyph-name="close1" unicode="&#58940;" d="M574.85863 384l298.588469 298.588469c17.359366 17.35732 17.359366 45.500287 0 62.859653-17.35732 17.359366-45.500287 17.359366-62.859653 0L511.998977 446.860676 213.410508 745.449145c-17.35732 17.359366-45.500287 17.359366-62.859653 0-17.35732-17.359366-17.35732-45.502333 0-62.859653l298.588469-298.588469L150.549831 85.411531c-17.35732-17.359366-17.35732-45.502333 0-62.859653 17.359366-17.359366 45.502333-17.359366 62.859653 0l298.588469 298.588469 298.588469-298.588469c17.359366-17.359366 45.502333-17.359366 62.859653 0 17.359366 17.35732 17.359366 45.500287 0 62.859653L574.85863 384z"  horiz-adv-x="1024" />

    
    <glyph glyph-name="xinfeng" unicode="&#58887;" d="M751.155868 472.512916c-8.636704 0-15.640212-7.003508-15.640212-15.639189L735.515656 201.36645 287.078321 201.36645 287.078321 566.373631l318.077336 0 108.237143 0L511.293919 364.276796 386.79337 488.781438c-6.107091 6.108115-16.013719 6.108115-22.121833 0-6.112208-6.107091-6.112208-16.014742 0-22.121833l135.561465-135.566582c2.931772-2.931772 6.912433-4.579295 11.060917-4.579295 4.148483 0 8.129144 1.6465 11.059893 4.579295L762.215762 570.953949c4.474918 4.473895 5.815449 11.205203 3.39226 17.048281-2.419096 5.845125-8.124028 9.656941-14.452153 9.656941L605.155656 597.659171 271.432992 597.659171c-8.636704 0-15.640212-7.003508-15.640212-15.640212l0-396.297838c0-8.636704 7.003508-15.640212 15.640212-15.640212l479.721853 0c8.640798 0 15.644305 7.003508 15.644305 15.640212L766.79915 456.873728C766.800173 465.509409 759.796666 472.512916 751.155868 472.512916zM516.062526 817.987229l-2.208295 0c-244.972341 0-444.248943-194.628746-444.248943-433.901271S268.882913-49.81429 513.855254-49.81429c244.971317 0 444.248943 194.627722 444.248943 433.900248S761.033843 817.987229 516.062526 817.987229zM513.855254-8.773572c-219.856313 0-402.391626 178.115654-402.391626 392.859529 0 214.740806 182.535313 392.977209 402.391626 392.977209 219.860407 0 402.394696-178.236404 402.394696-392.977209C916.366607 169.341059 733.828224-8.773572 513.855254-8.773572z"  horiz-adv-x="1024" />

    
    <glyph glyph-name="yiwen" unicode="&#58914;" d="M510.686075 818.283987c-249.505587 0-451.773314-196.499349-451.773314-438.890912s202.267726-438.890912 451.773314-438.890912c249.507634 0 451.76922 196.499349 451.76922 438.890912S760.194732 818.283987 510.686075 818.283987zM535.207561 120.068865l-94.182033 0 0 68.642356 94.182033 0L535.207561 120.068865zM684.524309 426.11826c-13.780865-18.079774-40.73782-40.073694-80.859609-65.964364-26.956955-17.414625-44.567032-30.249955-52.834322-38.508036-8.271384-8.263198-14.398942-17.745153-18.376533-28.462239-3.985778-10.717086-6.284123-28.126594-6.891967-52.233642l-79.483262 0c-0.310062 8.033977-0.460488 14.060227-0.460488 18.079774 0 23.660886 4.594645 44.083008 13.784958 61.274552 6.732331 12.947893 17.60803 26.007327 32.617885 39.178301 11.026124 9.593496 30.854728 23.609721 59.500139 42.025139 28.636201 18.415418 47.241954 33.090653 55.822376 44.031842 8.569166 10.936073 12.863982 22.877033 12.863982 35.82595 0 23.440875-12.564154 44.036959-37.674041 61.781088-25.117051 17.745153-55.899124 26.617218-92.346221 26.617218-35.226293 0-64.62895-8.033977-88.213088-24.107047-23.590278-16.07307-39.051411-41.186028-46.404889-75.339896l-84.993766 7.367805c7.65126 45.75509 30.392194 80.807421 68.225871 105.138572 37.826514 24.331151 87.823208 36.501332 150.006456 36.501332 65.850777 0 118.376061-13.059434 157.588131-39.179324 39.201837-26.118867 58.808384-57.706283 58.808384-94.761224C705.201234 463.955007 698.309266 444.198034 684.524309 426.11826z"  horiz-adv-x="1024" />

    
    <glyph glyph-name="xinfeng1" unicode="&#58880;" d="M1021.866667 596C1024 605.6 1023.2 615.466667 1016.533333 623.466667 1015.466667 624.533333 1013.333333 624.266667 1012 625.6 1000.8 651.466667 981.066667 669.333333 944 669.333333L112 669.333333c-39.466667 0-82.133333-15.2-101.333333-44.533333C9.866667 624 8.533333 624 7.733333 623.466667 1.066667 615.466667 0 605.6 1.866667 596.266667 1.6 593.866667 0 592 0 589.333333l0-512C0 24 58.933333-34.666667 112-34.666667l832 0c53.066667 0 80.266667 58.933333 80.266667 112L1024.266667 589.333333C1024.266667 592.266667 1022.133333 593.333333 1021.866667 596zM928 605.333333l16 0c0.266667 0 0.266667 0 0.533333 0L512 260.533333 81.333333 604C91.2 605.866667 103.2 605.333333 112 605.333333L928 605.333333zM944 29.333333 112 29.333333c-17.6 0-48 30.133333-48 48l0 458.666667 427.2-341.333333C497.066667 189.333333 504.533333 186.666667 512 186.666667c7.466667 0 14.933333 2.666667 21.066667 7.733333l427.2 341.333333 0-458.666667C960.266667 59.466667 961.6 29.333333 944 29.333333z"  horiz-adv-x="1024" />

    
    <glyph glyph-name="fangdajing" unicode="&#58885;" d="M992-44.8l-217.6 192c25.6 32 51.2 70.4 64 108.8 19.2 57.6 32 115.2 32 172.8 0 57.6-12.8 115.2-32 172.8-19.2 51.2-51.2 102.4-89.6 140.8-38.4 38.4-83.2 70.4-134.4 96C563.2 864 505.6 876.8 448 876.8c-57.6 0-115.2-12.8-166.4-32C230.4 819.2 185.6 787.2 147.2 742.4 108.8 704 76.8 652.8 51.2 601.6 32 550.4 19.2 492.8 19.2 428.8c0-57.6 12.8-115.2 32-172.8 19.2-51.2 51.2-102.4 89.6-140.8 38.4-38.4 83.2-70.4 134.4-96C332.8 0 390.4-12.8 448-12.8c57.6 0 115.2 12.8 166.4 32 44.8 19.2 83.2 44.8 115.2 76.8l217.6-192c6.4-6.4 12.8-6.4 19.2-6.4 6.4 0 19.2 6.4 25.6 12.8C1004.8-83.2 1004.8-57.6 992-44.8L992-44.8zM448 51.2c-198.4 0-358.4 166.4-358.4 377.6C89.6 640 249.6 806.4 448 806.4c198.4 0 358.4-166.4 358.4-377.6C806.4 224 646.4 51.2 448 51.2L448 51.2z"  horiz-adv-x="1024" />

    
    <glyph glyph-name="manager" unicode="&#58902;" d="M838.096 341.92c1.76 13.728 3.072 27.472 3.072 42.064 0 14.608-1.312 28.336-3.072 42.08l92.576 70.832c8.336 6.432 10.528 18.032 5.264 27.472l-87.76 148.544c-5.264 9.456-17.104 12.88-26.768 9.456l-109.248-42.944c-22.816 17.168-47.392 31.344-74.144 42.08l-16.672 113.776c-1.312 10.304-10.528 18.032-21.504 18.032L424.336 813.312c-10.96 0-20.176-7.728-21.504-18.032l-16.672-113.776c-26.768-10.736-51.328-25.328-74.144-42.08l-109.248 42.944c-10.096 3.856-21.504 0-26.768-9.456l-87.76-148.544c-5.696-9.44-3.072-21.04 5.264-27.472l92.576-70.832c-1.76-13.744-3.072-27.904-3.072-42.08 0-14.16 1.328-28.336 3.072-42.064l-92.576-70.832c-8.336-6.448-10.528-18.032-5.264-27.488L176 95.056c5.264-9.44 17.104-12.88 26.768-9.44l109.248 42.944c22.816-17.184 47.392-31.344 74.144-42.08l16.672-113.776c1.328-10.304 10.544-18.032 21.504-18.032L599.84-45.328c10.976 0 20.176 7.728 21.504 18.032l16.672 113.776c26.768 10.736 51.328 25.328 74.144 42.08l109.248-42.944c10.096-3.872 21.488 0 26.768 9.44l87.76 148.544c5.264 9.44 3.072 21.04-5.264 27.488L838.096 341.92 838.096 341.92zM512.096 233.744c-84.672 0-153.568 67.408-153.568 150.256s68.896 150.272 153.568 150.272c84.688 0 153.568-67.408 153.568-150.272S596.784 233.744 512.096 233.744L512.096 233.744z"  horiz-adv-x="1024" />

    
    <glyph glyph-name="xinfeng-copy" unicode="&#58886;" d="M751.156 472.513c-8.637 0-15.64-7.004-15.64-15.639v-255.507h-448.437v365.007h426.314l-202.099-202.097-124.501 124.505c-6.107 6.108-16.014 6.108-22.122 0-6.112-6.107-6.112-16.015 0-22.122l135.561-135.567c2.932-2.932 6.912-4.579 11.061-4.579 4.148 0 8.129 1.646 11.060 4.579l239.862 239.861c4.475 4.474 5.815 11.205 3.392 17.048-2.419 5.845-8.124 9.657-14.452 9.657h-479.723c-8.637 0-15.64-7.004-15.64-15.64v-396.298c0-8.637 7.004-15.64 15.64-15.64h479.722c8.641 0 15.644 7.004 15.644 15.64v271.153c0.001 8.636-7.002 15.639-15.643 15.639zM516.063 817.987h-2.208c-244.972 0-444.249-194.629-444.249-433.901s199.278-433.9 444.25-433.9c244.971 0 444.249 194.628 444.249 433.9s-197.070 433.901-442.042 433.901zM513.855-8.774c-219.856 0-402.392 178.116-402.392 392.86 0 214.741 182.535 392.977 402.392 392.977 219.86 0 402.395-178.236 402.395-392.977 0.117-214.745-182.422-392.86-402.395-392.86z"  horiz-adv-x="1024" />

    
    <glyph glyph-name="fangge_xuanzhong_tianchong" unicode="&#58890;" d="M832 800H192c-52.928 0-96-43.072-96-96v-640c0-52.928 43.072-96 96-96h640c52.928 0 96 43.072 96 96V704c0 52.928-43.072 96-96 96zM727.232 457.568L471.008 198.56c-0.064-0.064-0.192-0.096-0.256-0.192-0.096-0.064-0.096-0.192-0.192-0.256-2.048-1.984-4.576-3.2-6.944-4.544-1.184-0.672-2.144-1.696-3.392-2.176-3.84-1.536-7.904-2.336-11.968-2.336-4.096 0-8.224 0.8-12.096 2.4-1.28 0.544-2.304 1.632-3.52 2.304-2.368 1.344-4.832 2.528-6.88 4.544-0.064 0.064-0.096 0.192-0.16 0.256-0.064 0.096-0.192 0.096-0.256 0.192L299.328 328.256c-12.32 12.672-12.032 32.928 0.64 45.248 12.672 12.288 32.896 12.064 45.248-0.64L448.48 266.752 681.76 502.56c12.416 12.576 32.704 12.672 45.248 0.256 12.512-12.448 12.64-32.704 0.224-45.248z"  horiz-adv-x="1024" />

    
    <glyph glyph-name="jiahao1" unicode="&#58904;" d="M512-96c-129 0-249 51-339 141s-141 210-141 339c0 129 51 249 141 339 90 90 210 141 339 141s249-51 339-141c90-90 141-210 141-339 0-129-51-249-141-339-90-90-210-141-339-141v0zM512 792c-111 0-213-42-291-120s-120-180-120-288 42-213 120-288c78-78 180-120 291-120 111 0 213 42 291 120 78 78 120 180 120 288 0 108-42 213-120 288-78 78-180 120-291 120v0zM512 792zM752 417h-207v207c0 18-15 33-33 33s-33-15-33-33v-207h-207c-18 0-33-15-33-33s15-33 33-33h207v-207c0-18 15-33 33-33s33 15 33 33v207h207c18 0 33 15 33 33s-15 33-33 33v0zM752 417z"  horiz-adv-x="1025" />

    
    <glyph glyph-name="jiance" unicode="&#58900;" d="M512 843.932203c122.731235 0 238.272155-47.852785 325.299758-134.632445S971.932203 506.731235 971.932203 384s-47.852785-238.272155-134.632445-325.299758c-86.779661-86.779661-202.320581-134.632446-325.299758-134.632445s-238.272155 47.852785-325.299758 134.632445C99.920581 145.727845 52.067797 261.268765 52.067797 384s47.852785 238.272155 134.632445 325.299758S389.268765 843.932203 512 843.932203m0 49.588378C230.585956 893.520581 2.479419 665.414044 2.479419 384S230.585956-125.520581 512-125.520581 1021.520581 102.585956 1021.520581 384 793.414044 893.520581 512 893.520581zM74.382567 385.239709h109.094431v-4.958837H74.382567zM208.271186 410.033898H49.588378v-54.547215h158.682808v54.547215zM840.523002 385.239709h109.094431v-4.958837h-109.094431zM974.411622 410.033898h-158.682808v-54.547215h158.682808v54.547215zM508.280872 820.377724h7.438256v-109.094431h-7.438256zM540.513317 845.171913h-57.026634v-158.682809h57.026634v158.682809zM508.280872 54.237288h7.438256v-109.094431h-7.438256zM540.513317 79.031477h-57.026634v-158.682809h57.026634v158.682809z"  horiz-adv-x="1024" />

    
    <glyph glyph-name="unlock" unicode="&#58922;" d="M853.333 512h-576v42.667c0 129.387 103.637 234.667 233.045 234.667 98.923 0 186.987-62.869 220.331-156.437 2.893-8.306 10.657-14.16 19.788-14.16 2.536 0 4.966 0.452 7.216 1.279 8.103 2.998 13.878 10.792 13.878 19.935 0 2.613-0.472 5.116-1.335 7.429-39.355 110.381-142.885 184.621-259.792 184.621-152.917 0-275.797-124.416-275.797-277.333v-42.667h-64c-35.285 0-64-28.715-64-64v-426.667c0-35.285 28.715-64 64-64h682.667c35.285 0 64 28.715 64 64v426.667c0 35.285-28.715 64-64 64zM874.667 21.333c0-11.782-9.551-21.333-21.333-21.333-0 0-0 0-0 0l-682.667 0c-11.755 0-21.333 9.557-21.333 21.333v426.667c0 11.755 9.579 21.333 21.333 21.333h682.667c11.776 0 21.333-9.579 21.333-21.333v-426.667zM512 384c-58.816 0-106.667-47.851-106.667-106.667 0-33.664 16.064-65.323 42.645-85.312l0.021-64.021c0-35.285 28.715-64 65.195-64 34.624 0 62.805 28.715 62.805 64v64c25.994 19.732 42.621 50.634 42.667 85.422-0 58.727-47.851 106.578-106.667 106.578zM543.979 221.867c-6.408-3.745-10.645-10.59-10.645-18.426 0-0.010 0-0.019 0-0.029l-0-75.412c0-11.968-8.853-21.333-21.333-21.333-11.755 0-21.333 9.557-21.333 21.333l-0.021 75.435c0 0.004 0 0.010 0 0.015 0 7.839-4.237 14.689-10.545 18.384-19.343 11.381-32.062 31.976-32.101 55.545 0 35.24 28.715 63.954 64 63.954s64-28.715 64-64c-0.064-23.584-12.806-44.178-31.768-55.331z"  horiz-adv-x="1024" />

    
    <glyph glyph-name="jiahao3" unicode="&#58916;" d="M512-47.706c-58.7 0-115.66 11.502-169.293 34.187-51.791 21.906-98.299 53.261-138.231 93.194-39.932 39.931-71.288 86.44-93.193 138.231C88.598 271.54 77.095 328.498 77.095 387.2c0 58.7 11.502 115.658 34.188 169.293 21.905 51.791 53.26 98.3 93.193 138.23 39.932 39.933 86.44 71.288 138.231 93.194C396.341 810.602 453.3 822.104 512 822.104c58.7 0 115.658-11.502 169.293-34.188 51.791-21.906 98.3-53.26 138.232-93.193s71.288-86.44 93.192-138.231c22.686-53.634 34.188-110.592 34.188-169.293 0-58.701-11.502-115.66-34.188-169.293-21.904-51.79-53.26-98.3-93.192-138.231-39.932-39.933-86.44-71.288-138.232-93.194C627.658-36.204 570.7-47.706 512-47.706z m0 818.645c-102.5 0-198.866-39.916-271.345-112.395S128.26 489.699 128.26 387.199c0-102.5 39.916-198.866 112.395-271.345S409.5 3.459 512 3.459s198.866 39.916 271.345 112.395S895.74 284.698 895.74 387.199c0 102.5-39.916 198.866-112.395 271.345S614.5 770.939 512 770.939zM757.593 361.316H266.407c-14.13 0-25.583 11.454-25.583 25.583s11.454 25.583 25.583 25.583h491.186c14.13 0 25.583-11.454 25.583-25.583s-11.455-25.583-25.583-25.583zM512 116.023c-14.129 0-25.583 11.454-25.583 25.582V632.792c0 14.13 11.454 25.583 25.583 25.583s25.583-11.454 25.583-25.583v-491.187c0-14.128-11.455-25.582-25.583-25.582z"  horiz-adv-x="1024" />

    
    <glyph glyph-name="gou" unicode="&#58881;" d="M954.579 384.043c0-244.543-198.078-442.58-442.58-442.58-244.371 0-442.58 198.037-442.58 442.58 0 244.458 198.209 442.494 442.58 442.494 244.502 0 442.58-198.036 442.58-442.494zM771.065 525.981l-68.807 68.764-286.9-287.376-93.657 93.963-68.764-68.634 159.528-159.442 2.894 2.983 2.852-2.983 352.854 352.725z"  horiz-adv-x="1024" />

    
    <glyph glyph-name="shouji" unicode="&#58907;" d="M702.7 835.055H321.283c-57.463 0-104.022-46.591-104.022-104.018v-693.455c0-57.427 46.56-104.019 104.022-104.019H702.7c57.463 0 104.023 46.592 104.023 104.02V731.036c0 57.426-46.56 104.018-104.024 104.018zM477.316 800.382h69.35c9.582 0 17.336-7.754 17.336-17.336 0-9.582-7.754-17.336-17.337-17.336h-69.349c-9.581 0-17.336 7.754-17.336 17.336 0 9.582 7.755 17.336 17.336 17.336z m34.675-824.46c-24.482 0-44.324 19.842-44.324 44.323 0 24.48 19.843 44.323 44.324 44.323 24.482 0 44.325-19.843 44.325-44.323 0-24.482-19.843-44.322-44.325-44.322z m225.381 148.341c0-9.582-7.753-17.335-17.336-17.335h-416.09c-9.583 0-17.338 7.753-17.338 17.335V713.7c0 9.582 7.755 17.336 17.338 17.336h416.09c9.583 0 17.336-7.755 17.336-17.336v-589.437z"  horiz-adv-x="1024" />

    
    <glyph glyph-name="zizhanghaoxuanzekuangouxuanzhuangtai" unicode="&#58898;" d="M896.032-127.968H127.968A128 128 0 0 0 0 0V768.032A128 128 0 0 0 127.968 896H896a128 128 0 0 0 127.968-127.968V0a127.936 127.936 0 0 0-127.936-127.968z m-107.008 738.24L432.032 253.28l-202.528 202.464-45.28-45.216 202.528-202.528 45.12-45.408 402.4 402.4-45.248 45.28z"  horiz-adv-x="1024" />

    
    <glyph glyph-name="num_" unicode="&#59009;" d="M512 832c-247.424 0-448-200.576-448-448s200.576-448 448-448 448 200.576 448 448c0 247.424-200.576 448-448 448zM568.32 128h-64v428.16l-81.92-87.68-38.4 39.68 128 131.84h56.32v-512z"  horiz-adv-x="1024" />

    
    <glyph glyph-name="num_1" unicode="&#59010;" d="M512 832c-247.424 0-448-200.576-448-448s200.576-448 448-448 448 200.576 448 448c0 247.424-200.576 448-448 448zM681.6 128h-328.96v50.56c172.16 141.44 266.24 225.92 266.24 312.96 0.010 0.512 0.016 1.116 0.016 1.721 0 50.545-40.975 91.52-91.52 91.52-3.161 0-6.285-0.16-9.363-0.473-0.090 0.037-0.653 0.040-1.217 0.040-51.686 0-97.531-25.008-126.095-63.584l-38.7 39.895c37.078 48.493 94.958 79.46 160.071 79.46 2.226 0 4.443-0.036 6.651-0.108 3.32 0.326 7.558 0.507 11.839 0.507 82.003 0 148.48-66.477 148.48-148.48 0-0.175-0-0.351-0.001-0.526 0-103.013-99.2-196.453-232.32-307.813h234.88v-55.68z"  horiz-adv-x="1024" />

    
    <glyph glyph-name="num_3" unicode="&#59012;" d="M512 832c247.424 0 448-200.576 448-448 0-247.424-200.576-448-448-448s-448 200.576-448 448 200.576 448 448 448zM704 256v57.6h-72.96v326.4h-88.96l-222.080-329.6v-54.4h247.040v-128h64v128h72.96zM566.4 313.6h-181.76l181.76 267.52v-267.52z"  horiz-adv-x="1024" />

    
    <glyph glyph-name="num_2" unicode="&#59011;" d="M512 832c-247.424 0-448-200.576-448-448s200.576-448 448-448 448 200.576 448 448c0 247.424-200.576 448-448 448zM524.16 128c-2.725-0.131-5.919-0.206-9.13-0.206-66.572 0-125.656 32.065-162.649 81.592l35.459 38.933c30.858-39.14 78.273-64.037 131.502-64.037 1.244 0 2.485 0.014 3.722 0.041 70.216-0.003 113.096 36.477 113.096 92.797s-49.28 86.4-120.32 86.4h-50.56v55.68h49.92c64 0 112.64 24.32 112.64 81.92s-51.84 83.84-107.52 83.84c-0.427 0.004-0.931 0.006-1.437 0.006-50.926 0-96.405-23.326-126.334-59.877l-34.15 38.111c38.203 47.052 96.044 76.874 160.852 76.874 1.951 0 3.896-0.027 5.834-0.081 92.515 0.006 163.555-47.994 163.555-131.834-1.225-59.499-46.157-108.136-103.928-115.165 61.822-8.064 109.676-59.778 111.614-123.049 0.635-81.786-65.285-141.946-172.165-141.946z"  horiz-adv-x="1024" />

    
    <glyph glyph-name="dagou1" unicode="&#59129;" d="M1026.887106 385.990394c-9.701935-294.063347-225.683904-511.683638-510.59057-513.972168C227.358064-130.303582 1.100747 89.833068 0.00256 385.573134-1.059789 671.869813 226.682256 895.871878 512.013862 895.999872c286.132847 0.191991 506.364212-224.583157 514.873244-510.009478z m-62.716994-9.632818C978.287836 616.571344 754.447043 836.866706 521.938506 836.349611c-250.012978-0.517095-452.619588-197.417739-463.028049-440.370575-10.311186-240.664306 212.241988-468.534345 447.55871-465.083631 249.844026 3.673424 455.962788 199.767706 457.700945 445.462171zM310.674391 404.262799c37.545721-21.459452 67.19166-47.270695 91.620569-79.046452 40.443502-52.59012 78.601033-46.919991 122.26742-1.059789 72.41125 76.084674 148.367929 148.785189 222.263908 223.482409 17.468603 17.627315 37.484284 40.218233 59.808974 19.078766 22.137819-20.978195 2.547078-40.635493-16.306419-59.035891-96.095235-93.778546-191.937041-187.915474-285.006501-284.653238-28.714144-29.83793-47.98234-34.998643-77.536124-3.353439-42.924023 45.983076-88.814944 89.170766-133.802227 133.12642-10.247189 10.02192-19.882567 19.949124-7.961219 33.544632 6.604483 7.477402 16.434412 12.085181 24.651619 17.916582z"  horiz-adv-x="1026" />

    
    <glyph glyph-name="gou1" unicode="&#58910;" d="M511.974 896C229.22 896 0 666.78 0 384.026c0-282.758 229.22-511.975 511.974-511.975 282.758 0 511.975 229.217 511.975 511.975C1023.949 666.78 794.729 896 511.974 896z m293.657-379.174L474.51 185.703l-0.011-0.01c-15.265-15.27-38.542-17.653-56.311-7.158a46.56 46.56 0 0 0-9.22 7.158c-0.002 0.004-0.006 0.006-0.006 0.006L218.32 376.342c-18.095 18.095-18.095 47.437 0 65.537 18.095 18.095 47.438 18.095 65.533 0l157.885-157.885L740.1 582.356c18.097 18.096 47.44 18.096 65.535 0 18.09-18.095 18.09-47.435-0.004-65.53z"  horiz-adv-x="1025" />

    
    <glyph glyph-name="gou2" unicode="&#58917;" d="M247.808 399.872l43.776 46.72 228.8-214.528-43.776-46.72zM450.88 252.544l297.664 317.504 46.72-43.776-297.664-317.44z"  horiz-adv-x="1024" />

    
    <glyph glyph-name="shouji1" unicode="&#58897;" d="M512.26-128c-277.486 0-503.3 229.662-503.3 511.96 0 282.297 225.814 512 503.3 512 277.528 0 503.302-229.703 503.302-512 0-282.298-225.774-511.96-503.301-511.96z m0 970.002C263.998 842.002 62.037 636.552 62.037 384c0-252.593 201.961-458.042 450.225-458.042 248.343 0 450.265 205.45 450.265 458.042 0 252.552-201.962 458.002-450.265 458.002z m164.4-740.26c-7.015-7.135-15.273-12.747-24.694-16.836-9.46-4.13-19.603-6.174-30.466-6.174H407.552c-10.864 0-21.006 2.045-30.467 6.174-9.42 4.089-17.679 9.701-24.694 16.837-7.015 7.135-12.548 15.353-16.596 24.653-4.01 9.3-6.014 19.323-6.014 30.146v447.9c0 10.784 2.005 20.966 6.014 30.467 4.048 9.54 9.58 17.839 16.596 24.974 7.015 7.096 15.273 12.748 24.694 16.837 9.46 4.13 19.603 6.174 30.467 6.174H621.5c10.863 0 21.005-2.045 30.466-6.174 9.42-4.089 17.679-9.741 24.694-16.837 7.016-7.135 12.548-15.433 16.596-24.974 4.01-9.5 6.014-19.683 6.014-30.467v-447.9c0-10.823-2.005-20.845-6.014-30.146-4.048-9.3-9.58-17.518-16.596-24.653z m-184.443 11.025c6.253-6.695 13.59-10.022 22.008-10.022 8.86 0 16.275 3.327 22.289 10.022 6.053 6.694 9.06 14.592 9.06 23.651 0 9.541-3.007 17.519-9.06 24.013-6.014 6.454-13.43 9.701-22.29 9.701-8.418 0-15.754-3.247-22.007-9.701-6.214-6.494-9.34-14.472-9.34-24.013 0-9.06 3.126-16.957 9.34-23.651z m67.187 523.785c-1.965 1.965-4.17 2.887-6.615 2.887h-76.527c-2.005 0-4.13-0.922-6.334-2.887-2.205-1.964-3.327-4.65-3.327-8.097 0-3.488 1.002-6.174 3.046-8.098 1.965-1.964 4.17-2.926 6.615-2.926h76.527c2.446 0 4.65 0.962 6.615 2.926 2.044 1.924 3.046 4.61 3.046 8.098 0 3.447-1.002 6.133-3.046 8.097z m91.039-63.218H378.007v-385.042h272.436V573.334z"  horiz-adv-x="1024" />

    
    <glyph glyph-name="jiahao21" unicode="&#58909;" d="M511.377 830.516c-246.425 0-446.895-200.47-446.895-446.867 0-246.425 200.47-446.895 446.895-446.895s446.895 200.47 446.895 446.895c0 246.397-200.47 446.867-446.895 446.867v0zM511.377-16.125c-220.447 0-399.78 179.327-399.78 399.774 0 220.418 179.333 399.75 399.78 399.75s399.778-179.331 399.778-399.75c0-220.447-179.331-399.774-399.778-399.774v0zM679.934 415.787h-136.735v136.419c0 13.004-18.41 23.559-31.414 23.559s-31.409-10.554-31.409-23.559v-136.419h-137.555c-13.004 0-23.558-18.41-23.558-31.414s10.553-31.409 23.558-31.409h137.555v-137.9c0-13.004 18.405-23.558 31.409-23.558 13.004 0 31.414 10.553 31.414 23.558v137.9h136.736c13.004 0 23.558 18.405 23.558 31.409-0.001 13.004-10.526 31.414-23.559 31.414v0zM679.934 415.787z"  horiz-adv-x="1024" />

    
    <glyph glyph-name="bi1" unicode="&#58895;" d="M537.333333 77.333333l60.266667 217.733334L1114.133333 811.466667c24 24 54.933333 23.733333 78.8 0l118.133334-118.133334c23.733333-23.733333 24-54.666667 0-78.8L794.8 98l-218-60.266667c-30-6.266667-45.6 9.333333-39.466667 39.6z m517.866667 596.266667l118.133333-118 78.8 78.8c20.4 20.266667 19.066667 20.133333 0 39.333333l-78.8 78.666667c-18.666667 20.133333-20.4 20.133333-39.333333 0l-78.8-78.8zM680.8 299.333333l118.133333-118.133333 334.933334 334.933333-118.133334 118.133334-334.933333-334.933334zM596.933333 97.333333l162.666667 44.533334-118.133333 118.133333-44.533334-162.666667z"  horiz-adv-x="1821" />

    
    <glyph glyph-name="jiahao31" unicode="&#58913;" d="M512 793.313c113.459 0 214.958-46.019 289.526-119.808 73.81-74.568 119.808-176.906 119.808-289.526 0-113.459-45.998-214.979-119.808-289.526-74.568-73.81-176.067-119.808-289.526-119.808-112.64 0-214.979 45.978-289.526 119.808-73.769 74.568-119.788 176.087-119.788 289.546 0 112.62 46.019 214.958 119.788 289.526 74.547 73.769 176.886 119.788 289.526 119.788v0zM771.4 643.379c-65.843 66.642-157.86 107.909-259.4 107.909s-193.577-41.267-259.4-107.909c-66.621-65.823-107.889-157.839-107.889-259.379 0-101.56 41.267-193.556 107.889-259.4 65.823-66.621 157.839-107.889 259.4-107.889 101.54 0 193.556 41.267 259.4 107.889 66.621 65.843 107.909 157.839 107.909 259.4 0 101.54-41.288 193.556-107.909 259.379v0zM299.418 352.236c-11.919 0-21.422 9.544-21.422 21.443 0 11.1 9.523 20.644 21.422 20.644h442.655c11.878 0 21.402-9.544 21.402-20.644 0-11.899-9.523-21.443-21.402-21.443h-442.655zM533.443 152.351c0-11.899-9.544-21.402-21.443-21.402-11.1 0-20.623 9.503-20.623 21.402l0 442.655c0 11.1 9.523 20.623 20.623 20.623 11.899 0 21.443-9.523 21.443-20.623v-442.655z"  horiz-adv-x="1024" />

    
    <glyph glyph-name="shujuzhanshi" unicode="&#59264;" d="M948.224 785.408h-411.648v49.664c0 13.824-11.264 25.088-25.088 25.088S486.4 848.896 486.4 835.072v-49.664H75.264C48.128 785.408 25.6 762.88 25.6 735.744v-573.952c0-27.648 22.528-49.664 49.664-49.664h411.648v-51.2l-109.056-109.056c-9.728-9.728-9.728-25.6 0-35.328s25.6-9.728 35.328 0L512 15.36l98.304-98.304c9.728-9.728 25.6-9.728 35.328 0s9.728 25.6 0 35.328L536.576 61.44v51.2h411.648c27.648 0 49.664 22.528 49.664 49.664v573.44c0.512 27.136-22.016 49.664-49.664 49.664z m0-623.616H75.264V735.744h872.96v-573.952zM507.904 382.976L491.52 399.36l-35.328 35.328-53.248 52.736c-5.12 5.12-12.288 7.168-18.944 7.168-6.656 0.512-13.824-2.048-18.944-7.168l-25.088-25.088-35.328-35.328-35.328-35.328c-9.728-9.728-9.728-25.6 0-35.328 9.728-9.728 25.6-9.728 35.328 0l35.328 35.328 35.328 35.328 8.704 8.704 36.864-36.864 35.328-35.328 30.208-30.208c1.024-1.536 2.048-3.584 3.584-5.12 5.12-5.12 11.776-7.168 18.432-7.168 6.656 0 13.312 2.048 18.432 7.168 1.536 1.536 2.56 3.584 3.584 5.12l30.208 30.208 35.328 35.328 158.72 158.72c9.728 9.728 9.728 25.6 0 35.328-9.728 9.728-25.6 9.728-35.328 0l-158.72-158.72-35.328-35.328-17.408-15.872z"  horiz-adv-x="1024" />

    
    <glyph glyph-name="dagou-xianxing" unicode="&#58915;" d="M511.5-64.4C264-64.4 63.4 136.2 63.4 383.7S264 831.8 511.5 831.8s448.1-200.6 448.1-448.1S759-64.4 511.5-64.4z m0 851.4c-222.7 0-403.3-180.6-403.3-403.3s180.6-403.3 403.3-403.3S914.8 161 914.8 383.7 734.2 787 511.5 787z m-32.6-581.2c-8.8-8.7-22.9-8.7-31.7 0L288.8 364.2c-8.7 8.8-8.7 22.9 0 31.7 8.8 8.8 22.9 8.8 31.7 0l142.6-142.6 269.3 269.3c8.8 8.7 22.9 8.7 31.7 0 8.7-8.8 8.7-22.9 0-31.7L478.9 205.8z"  horiz-adv-x="1024" />

    
    <glyph glyph-name="num3_" unicode="&#58882;" d="M512 832c-247.424 0-448-200.576-448-448s200.576-448 448-448 448 200.576 448 448c0 247.424-200.576 448-448 448zM524.16 128c-2.725-0.131-5.919-0.206-9.13-0.206-66.572 0-125.656 32.065-162.649 81.592l35.459 38.933c30.858-39.14 78.273-64.037 131.502-64.037 1.244 0 2.485 0.014 3.722 0.041 70.216-0.003 113.096 36.477 113.096 92.797s-49.28 86.4-120.32 86.4h-50.56v55.68h49.92c64 0 112.64 24.32 112.64 81.92s-51.84 83.84-107.52 83.84c-0.427 0.004-0.931 0.006-1.437 0.006-50.926 0-96.405-23.326-126.334-59.877l-34.15 38.111c38.203 47.052 96.044 76.874 160.852 76.874 1.951 0 3.896-0.027 5.834-0.081 92.515 0.006 163.555-47.994 163.555-131.834-1.225-59.499-46.157-108.136-103.928-115.165 61.822-8.064 109.676-59.778 111.614-123.049 0.635-81.786-65.285-141.946-172.165-141.946z"  horiz-adv-x="1024" />

    
    <glyph glyph-name="num22" unicode="&#58883;" d="M512 832c-247.424 0-448-200.576-448-448s200.576-448 448-448 448 200.576 448 448c0 247.424-200.576 448-448 448zM681.6 128h-328.96v50.56c172.16 141.44 266.24 225.92 266.24 312.96 0.010 0.512 0.016 1.116 0.016 1.721 0 50.545-40.975 91.52-91.52 91.52-3.161 0-6.285-0.16-9.363-0.473-0.090 0.037-0.653 0.040-1.217 0.040-51.686 0-97.531-25.008-126.095-63.584l-38.7 39.895c37.078 48.493 94.958 79.46 160.071 79.46 2.226 0 4.443-0.036 6.651-0.108 3.32 0.326 7.558 0.507 11.839 0.507 82.003 0 148.48-66.477 148.48-148.48 0-0.175-0-0.351-0.001-0.526 0-103.013-99.2-196.453-232.32-307.813h234.88v-55.68z"  horiz-adv-x="1024" />

    
    <glyph glyph-name="up" unicode="&#58884;" d="M880.101759 163.84343133333368c18.020155-17.819854 47.143649-17.819854 65.097286 0 17.953637 17.753339 17.953637 46.610574 0 64.429405L544.042085 624.2268433333331c-18.020155 17.819854-47.077131 17.819854-65.097286 0L77.787839 228.2738593333337c-17.953637-17.819854-18.020155-46.610574 0-64.429405s47.210166-17.819854 65.097286-0.066515l368.641064 350.141612L880.101759 163.84343133333368 880.101759 163.84343133333368z"  horiz-adv-x="1024" />

    
    <glyph glyph-name="jiahao4" unicode="&#58921;" d="M808.909 409.071H536.91V680.912c0 13.65-11.395 24.74-25.071 24.74s-25.071-11.09-25.071-24.74v-271.841H215.086c-13.649 0-24.74-11.395-24.74-25.071 0-13.678 11.091-25.071 24.74-25.071h271.682v-271.84c0-13.648 11.393-24.74 25.07-24.74s25.072 11.092 25.072 24.74V358.93h271.999c13.649 0 24.742 11.392 24.742 25.071 0 13.677-11.093 25.07-24.742 25.07z"  horiz-adv-x="1024" />

    
    <glyph glyph-name="shujubiao" unicode="&#58911;" d="M962.56 716.8h-271.36c5.632 0 10.24 4.608 10.24 10.24v30.72c0 5.632-4.608 10.24-10.24 10.24h-68.608c-16.384 45.056-59.904 76.8-110.592 76.8s-93.696-31.744-110.592-76.8H332.8c-5.632 0-10.24-4.608-10.24-10.24v-30.72c0-5.632 4.608-10.24 10.24-10.24H61.44c-5.632 0-10.24-4.608-10.24-10.24v-588.8c0-5.632 4.608-10.24 10.24-10.24h901.12c5.632 0 10.24 4.608 10.24 10.24V706.56c0 5.632-4.608 10.24-10.24 10.24z m-450.56 76.8c21.504 0 40.448-10.24 52.224-25.6H459.776c11.776 15.36 30.72 25.6 52.224 25.6z m409.6-634.88H102.4V665.6h819.2v-506.88zM962.56 81.92H61.44c-5.632 0-10.24-4.608-10.24-10.24v-30.72c0-5.632 4.608-10.24 10.24-10.24h156.16l-37.376-80.384c-2.56-5.12 0-11.264 5.12-13.824l27.648-12.8c5.12-2.56 11.264 0 13.824 5.12l47.616 101.888h475.648l47.616-101.888c2.56-5.12 8.704-7.168 13.824-5.12l27.648 12.8c5.12 2.56 7.168 8.704 5.12 13.824l-37.376 80.384H962.56c5.632 0 10.24 4.608 10.24 10.24v30.72c0 5.632-4.608 10.24-10.24 10.24zM254.976 231.936c6.656 0 13.312 2.56 17.92 7.168l138.24 128.512 110.592-110.08 202.752 207.36c4.096 4.608 7.168 10.752 7.168 17.408 0 14.336-11.264 25.6-25.6 25.6-7.168 0-13.312-2.56-17.92-7.168l-166.4-170.496-109.568 108.544-174.592-161.792c-5.12-4.608-8.704-11.264-8.704-18.944 0.512-14.336 11.776-26.112 26.112-26.112zM573.44 547.84h199.68v-199.68c0-14.336 11.264-25.6 25.6-25.6s25.6 11.264 25.6 25.6V573.44c0 14.336-11.264 25.6-25.6 25.6h-225.28c-14.336 0-25.6-11.264-25.6-25.6s11.264-25.6 25.6-25.6z"  horiz-adv-x="1024" />

    
    <glyph glyph-name="xiangshangjiantouarrowup" unicode="&#58988;" d="M143.8982410000001 609.4899019999998c-18.020154999999992 17.819854000000007-47.143649 17.819854-65.097286 2.1316282072803006e-14-17.953637000000008-17.753338999999993-17.953637-46.610574-1.4210854715202004e-14-64.429405L479.95791499999973 149.10649000000012c18.020154999999992-17.819854000000007 47.077130999999994-17.81985400000001 65.097286-2.1316282072803006e-14L946.2121609999999 545.0594739999997c17.95363700000001 17.819853999999992 18.020155000000003 46.61057400000001 1.4210854715202004e-14 64.429405s-47.21016599999999 17.819854000000014-65.097286 0.06651500000002386l-368.64106400000003-350.14161199999984L143.8982410000001 609.4899019999998 143.8982410000001 609.4899019999998z"  horiz-adv-x="1024" />

    
    <glyph glyph-name="fangxingxuanzhong" unicode="&#58912;" d="M799.68 780.432H204.8c-49.2 0-89.232-40.04-89.232-89.232v-594.88c0-49.2 40.04-89.24 89.232-89.24h594.88c49.2 0 89.24 40.04 89.24 89.232V691.2c0 49.2-40.04 89.24-89.232 89.24zM702.312 462.136l-238.16-240.744c-0.064-0.064-0.184-0.096-0.24-0.184-0.088-0.056-0.088-0.176-0.184-0.24-1.904-1.84-4.248-2.968-6.448-4.224-1.104-0.624-2-1.576-3.16-2.016a29.496 29.496 0 0 0-22.368 0.056c-1.184 0.504-2.136 1.52-3.264 2.144-2.208 1.248-4.496 2.344-6.4 4.224-0.056 0.056-0.088 0.176-0.144 0.24-0.064 0.08-0.184 0.08-0.24 0.176L304.56 341.944a29.744 29.744 0 1 0 42.656 41.464L443.2 284.768l216.832 219.192a29.736 29.736 0 0 0 42.056 0.24 29.792 29.792 0 0 0 0.216-42.064z"  horiz-adv-x="1024" />

    
    <glyph glyph-name="pingzi" unicode="&#59047;" d="M856.670208 191.94675199999995c-126.94323200000001 153.96044799999999-178.82589866666666 280.14455466666664-186.42807466666667 299.679744l-5.363029333333333 139.30222933333334c-7.645866666666667 124.91707733333332 29.578581333333332 187.50941866666665 29.9008 188.039168l1.2069546666666668 1.9278506666666668 0.720896 2.157226666666667c4.511061333333333 13.538645333333333 3.6099413333333334 26.79876266666667-2.6159786666666665 38.34402133333333-11.63264 21.599573333333336-37.694122666666665 29.081599999999998-40.63231999999999 29.862570666666667L651.0400853333334 891.904H363.9650986666667l-3.118421333333333-1.114112c-43.48859733333334-15.532032-48.10888533333333-40.484864-48.19080533333333-49.971199999999996-1.7749333333333333-24.139093333333335 20.736682666666663-73.61877333333334 32.72430933333333-98.01454933333332L342.69866666666667 506.88c0-68.34858666666668-129.007616-243.16040533333333-178.651136-304.67140266666667-88.23876266666666-108.167168-86.33275733333333-176.62498133333332-86.20714666666666-179.48672l0.05461333333333333-0.8574293333333333c9.8304-110.61930666666667 91.44456533333333-141.92913066666665 133.72620799999999-143.03232h603.4773333333333c60.91025066666667 0 92.73890133333333 45.023232 102.02862933333334 70.92087466666666 65.72168533333334 106.70899200000001-49.823744000000005 231.12362666666667-60.45696 242.19374933333333z m26.978986666666668-223.63613866666668l-1.3489493333333333-2.113536-0.7591253333333333-2.3866026666666667c-0.147456-0.46967466666666663-15.466496000000001-46.759936-66.43712-46.759936l-602.9748906666666-0.005461333333333334c-3.5334826666666665 0.09284266666666667-86.441984 3.473408-96.08123733333333 107.42988799999999 0.10376533333333333 4.958890666666666 3.03104 62.12266666666667 77.68746666666667 153.63822933333333C212.89369600000003 201.84814933333325 380.928 412.7320746666667 380.928 506.6615466666667l2.7798186666666664 244.92441599999998-2.064384 4.134229333333334c-17.230506666666667 34.482858666666665-31.670272 72.794112-30.900223999999998 81.92546133333333l0.31675733333333334 2.5395199999999996-0.03822933333333333 0.2839893333333333c0.9229653333333334 1.753088 4.909738666666667 7.416490666666666 19.70449066666667 13.200042666666667h274.84706133333333c4.336298666666666-1.6110933333333333 12.227925333333333-5.521407999999999 14.865749333333333-10.414762666666666 0.442368-0.8246613333333334 1.4199466666666667-2.6269013333333335 0.458752-6.537216-7.716864-13.789866666666667-41.86112-82.54805333333334-34.193408-207.69996799999998l5.576021333333333-144.94924799999998 1.0048853333333334-2.78528c2.0534613333333334-5.701632 51.91543466666667-141.65060266666666 194.39069866666665-314.2560426666667l1.0704213333333332-1.2014933333333333c1.0922666666666667-1.1086506666666667 108.904448-112.98952533333333 54.902784-197.51458133333333zM354.9866666666667 310.27199999999993S228.01066666666668 121.856 188.416 60.41599999999994 200.70399999999995-20.138666666666722 200.70399999999995-20.138666666666722s531.1146666666667-5.461333333333333 591.1893333333334 0 46.42133333333334 47.78666666666666 46.42133333333334 47.78666666666666c2.7306666666666666 36.864000000000004-176.12800000000001 282.62399999999997-176.12800000000001 282.62399999999997H354.9866666666667z"  horiz-adv-x="1024" />

    
    <glyph glyph-name="tubiaozhizuomoban" unicode="&#58896;" d="M516 5.6c-29.3 0-67.3 45.3-76.1 71.7l-30.7 1.5c11.7-51.2 54.1-99.5 106.8-99.5 52.7 0 90.7 46.8 102.4 98h-33.6c-8.8-24.9-39.5-71.7-68.8-71.7z m346.7 177L820.3 247V396.2c0 147.7-98 272.1-237 304.3v29.3c0 38-29.3 65.8-65.8 65.8-38 0-65.8-29.3-65.8-65.8v-29.3C309.8 668.3 219.1 544 219.1 396.2V247l-55.6-64.4c-20.5-29.3 0-58.5 35.1-58.5h632c38 0 51.1 29.3 32.1 58.5zM483.8 728.3c0 19 13.2 32.2 32.2 32.2 19 0 32.2-13.2 32.2-32.2v-19h-64.4v19zM186.9 153.4l54.1 68.8 7.3 11.7V396.2c0 81.9 33.6 166.8 92.2 218 45.3 41 108.3 62.9 172.6 62.9 71.7 0 139-24.9 190.2-74.6 54.1-51.2 86.3-133.1 86.3-207.7V232.4l7.3-11.7 42.4-68.8-652.4 1.5z"  horiz-adv-x="1024" />

    
    <glyph glyph-name="jianceshujuguanli" unicode="&#58892;" d="M1124.295026 65.825867L895.029541 407.543402c-29.262672 46.398607-43.452316 101.484648-43.452316 160.455888V780.56969c0 44.576315 28.781438 76.00117 34.310571 96.192766 5.244767 19.178652 1.16943 19.237544-34.717768 19.237544H561.348262c-36.570347 0-42.39394-0.018509-37.280418-19.237544 5.52745-20.763692 34.934828-53.450522 34.934828-97.330226v-211.43294c0-58.971241-16.651337-113.828444-45.903913-160.455888l-112.638822-174.855862-112.229942-166.632835C274.972529 45.482834 267.538656 18.744112 267.538656-7.54703c0-63.998948 37.366232-120.45297 144.561737-120.45297h588.776864c107.426025 0 144.450683 56.454022 144.450682 120.45297-0.230521 26.291142-7.775447 52.806073-21.032913 73.372897z m-67.646897-103.542508c-10.057098-9.602787-26.521662-17.140983-55.999711-17.140983H411.869872c-29.254258 0-47.541114 7.999238-57.59653 17.602025-6.171898 5.941377-13.716825 16.109529-13.716824 30.511185 0 11.430126 3.200368 23.142935 8.917955 32.286363L575.847511 369.297152c35.88215 57.594847 56.302585 126.24291 56.302585 198.702138V822.859306h146.284753v-254.629495c0-71.315037 17.74-140.112855 54.534137-198.860305l229.771958-342.85836c5.712539-9.141745 9.071075-21.142284 9.071074-32.572411-0.008413-14.625447-8.991991-25.712316-15.163889-31.655376z m-45.720505 67.884148c0.117784-0.171629 0.230521-0.906939 0-0.573777L823.793588 310.859306H586.883902L401.583936 29.366574c-3.430889-4.798869-5.258228-11.825545-5.258228-18.226281 0-17.142666 14.374734-31.714268 31.286879-31.714268h557.713775c17.142666 0 31.08328 15.374218 31.08328 32.28468 0 5.71927-2.512171 13.881723-5.482018 18.456802z m-199.301155 159.087908c-3.430889 3.430889-5.258228 8.229758-5.258229 13.025263 0 4.800552 2.05113 9.602787 5.258229 13.033675 3.424158 3.424158 8.229758 5.251498 12.796424 5.251498 4.803917 0 9.602787-1.82734 12.803155-5.251498 3.430889-3.430889 5.258228-8.234806 5.258228-13.033675 0-4.797187-2.05786-9.594374-5.258228-13.025263-3.424158-3.430889-7.999238-5.258228-12.803155-5.258228-4.566666 0-9.370583 2.05786-12.796424 5.258228z m107.197186-134.854626c-3.200368-2.056178-6.626209-2.976578-9.833307-2.976578-5.712539 0-11.653917 2.976578-15.084805 8.229758l-53.706282 82.062014c-5.488749 8.451866-3.200368 19.88031 5.251497 25.369059a18.350796 18.350796 0 0 0 10.057098 2.973213c5.941377 0 11.660647-2.973213 14.861015-8.231441l53.713013-82.053601c5.480336-8.460279 3.193638-19.890405-5.258229-25.372424z m0 0"  horiz-adv-x="1416" />

    
    <glyph glyph-name="unlock-copy" unicode="&#59687;" d="M900.3614811022223 529.6355555555556H245.00148110222216v48.54518556444444c0 147.21327445333333 117.91625443555556 266.9985188977778 265.15380224 266.99851775999997 112.55201223111112 0 212.74927445333336-71.53132999111111 250.68733553777778-177.99092110222222a23.787141119999998 23.787141119999998 0 0 1 30.559194453333333-14.70919111111111 24.175502222222224 24.175502222222224 0 0 1 14.49073777777778 31.020373333333332C761.0610722133333 809.2558222222222 643.2661811199999 893.7244444444444 510.25237333333337 893.7244444444444 336.2664300088889 893.7244444444444 196.4562966755555 752.1666844444444 196.4562966755555 578.18074112v-48.54518556444444H123.63851889777771c-40.14686776888889 0-72.81777777777778-32.67091000888888-72.81777777777778-72.81777777777778v-485.4518522311111c0-40.14686776888889 32.67091000888888-72.81777777777778 72.81777777777778-72.81777777777778h776.7229622044445c40.14686776888889 0 72.81777777777778 32.67091000888888 72.81777777777778 72.81777777777778V456.8177777777778c0 40.14686776888889-32.67091000888888 72.81777777777778-72.81777777777778 72.81777777777778z m24.27259335111111-558.2696300088888a24.272592213333333 24.272592213333333 0 0 0-24.27259335111111-24.272592213333333H123.63851889777771c-13.374198897777777 0-24.272592213333333 10.874121102222222-24.27259335111111 24.272592213333333V456.8177777777778c0 13.374198897777777 10.898394453333333 24.272592213333333 24.27259335111111 24.272592213333333h776.7229622044445c13.398471111111112 0 24.272592213333333-10.898394453333333 24.27259335111111-24.272592213333333v-485.4518522311111zM512 384c-66.91953777777778 0-121.36296334222223-54.44342556444444-121.36296334222223-121.36296334222223 0-38.302151111111115 18.27726222222222-74.32267889777776 48.520913351111105-97.06609777777777L439.1822222222222 92.72888888888895c0-40.14686776888889 32.67091000888888-72.81777777777778 74.17704334222222-72.81777777777778C552.7536833422222 19.911111111111268 584.8177777777778 52.582021120000036 584.8177777777778 92.72888888888895v72.81777777777778a121.89695999999999 121.89695999999999 0 0 1 48.54518556444444 97.0903699911111c0 66.91953777777778-54.44342556444444 121.36296334222223-121.36296334222223 121.36296334222223z m36.384616675555556-184.47170332444443a24.199774435555554 24.199774435555554 0 0 1-12.112024462222223-20.99579335111111V92.72888888888895c0-13.616924444444443-10.073125546666665-24.272592213333333-24.272592213333333-24.272592213333333-13.374198897777777 0-24.272592213333333 10.874121102222222-24.272592213333333 24.272592213333333l-0.02427335111111111 85.82788778666666a24.224047786666667 24.224047786666667 0 0 1-12.112023324444445 20.995792213333335A73.15759445333333 73.15759445333333 0 0 0 439.1822222222222 262.6370366577778c0 40.14686776888889 32.67091000888888 72.81777777777778 72.81777777777778 72.81777777777778s72.81777777777778-32.67091000888888 72.81777777777778-72.81777777777778a73.20613888000001 73.20613888000001 0 0 0-36.43316110222222-63.10873998222222z"  horiz-adv-x="1024" />

    
    <glyph glyph-name="shujuzonglan-copy" unicode="&#59688;" d="M931.84 812.544h-389.12v43.008c0 16.896-13.824 30.72-30.72 30.72s-30.72-13.824-30.72-30.72v-43.008H92.16c-45.056 0-81.92-36.864-81.92-81.92v-537.6c0-45.056 36.864-81.92 81.92-81.92h389.12v-24.576c-1.536-1.024-2.56-1.536-3.584-2.56l-181.76-148.992c-13.312-10.752-14.848-30.208-4.096-43.008 6.144-7.168 14.848-11.264 23.552-11.264 6.656 0 13.824 2.048 19.456 7.168L481.28 8.70399999999995v-55.296c0-16.896 13.824-30.72 30.72-30.72s30.72 13.824 30.72 30.72v55.296l146.432-120.32c5.632-4.608 12.8-7.168 19.456-7.168 8.704 0 17.92 3.584 23.552 11.264 10.752 13.312 8.704 32.256-4.096 43.008l-181.76 148.992c-1.024 1.024-2.56 2.048-3.584 2.56v24.576h389.12c45.056 0 81.92 36.864 81.92 81.92v537.6c0 45.056-36.864 81.408-81.92 81.408z m20.48-619.008c0-11.264-9.216-20.48-20.48-20.48H92.16c-11.264 0-20.48 9.216-20.48 20.48v537.6c0 11.264 9.216 20.48 20.48 20.48h839.68c11.264 0 20.48-9.216 20.48-20.48v-537.6zM178.688 339.456c-9.216 0-17.92 4.096-24.064 11.264-10.752 13.312-8.704 32.768 4.608 43.008L368.64 561.664c10.24 8.192 25.088 9.216 36.352 1.536l217.088-144.384L826.368 578.56c13.312 10.24 32.768 8.192 43.008-5.12s8.192-32.768-5.12-43.008l-221.696-173.568c-10.24-8.192-25.088-8.704-35.84-1.536L389.632 499.712l-191.488-153.6c-5.632-4.608-12.8-6.656-19.456-6.656z"  horiz-adv-x="1024" />

    
    <glyph glyph-name="yunxingzhuangtair-copy" unicode="&#59689;" d="M511.14072395768017 573.3271546578035c-104.54525181557983 0-189.32715465780353-85.06832818966359-189.32715465780353-189.32715465780353 0-104.54525181557983 85.06832818966359-189.32715465780353 189.32715465780353-189.32715465780353s189.32715465780353 85.06832818966359 189.32715465780353 189.32715465780353C700.4678786154835 488.54525181557983 615.39955042582 573.3271546578035 511.14072395768017 573.3271546578035zM987.648 381.44000000000005c0.512 0 1.024 0 1.536 0 16.384 1.024 29.184 14.848 28.16 31.232-13.312 238.08-194.048 437.248-430.08 473.088-16.384 2.56-31.232-8.704-33.792-25.088-2.56-16.384 8.704-31.232 25.088-33.792 207.872-31.744 367.616-207.36 379.392-417.28C958.464 393.728 971.776 381.44000000000005 987.648 381.44000000000005zM988.16 350.20799999999997c-16.384 2.048-31.232-9.216-33.28-25.6-28.16-214.016-205.312-377.344-420.864-388.096-16.384-1.024-29.184-14.848-28.16-31.232 1.024-15.872 13.824-28.16 29.696-28.16 0.512 0 1.024 0 1.536 0 244.224 12.288 444.928 197.632 477.184 439.808C1015.808 333.312 1004.544 348.15999999999997 988.16 350.20799999999997zM451.584-60.416000000000054c-194.048 25.6-351.744 178.176-383.488 371.712-2.56 16.384-17.92 27.136-34.304 24.576-16.384-2.56-27.136-17.92-24.576-34.304 35.84-219.136 214.528-392.192 434.688-420.864 1.536 0 2.56-0.512 4.096-0.512 14.848 0 27.648 10.752 29.696 26.112C479.232-77.31200000000001 467.968-62.464000000000055 451.584-60.416000000000054zM31.744 369.664c0.512 0 0.512 0 1.024 0 15.872 0 29.184 12.8 29.696 28.672C69.632 631.808 250.88 818.176 483.84 831.488c16.384 1.024 29.184 14.848 28.16 31.232-1.024 16.384-14.848 28.672-31.232 28.16C353.792 883.712 235.52 829.952 146.944 738.816 57.856 647.6800000000001 6.656 527.8720000000001 2.56 400.384 2.048 384 14.848 370.17600000000004 31.744 369.664z"  horiz-adv-x="1024" />

    
    <glyph glyph-name="jianceshujuguanli-copy" unicode="&#59690;" d="M1293.4819676483633-55.34783168343438L976.9028266450908 416.5096905949656c-40.40709208898369 64.0690906780339-60.00073178866305 140.1341448707793-60.00073178866305 221.56404044837922V931.5996171344066c0 61.55279549292509 39.74258453634634 104.94551813520329 47.37743709879309 132.8268981744408 7.242188380960658 26.48266561257876 1.614796683693827 26.563986090329543-47.93971133941465 26.563986090329543H516.1420947159332c-50.49782805053102 0-58.539283001731675-0.025557982793744854-51.47832307459161-26.563986090329543 7.632528607341563-28.671353550738434 48.23943664846486-73.80666279067917 48.23943664846486-134.3975493770219v-291.9552348884807c0-81.42989695844082-22.992845887884112-157.17896229892213-63.385997007918355-221.56404044837922l-155.53628367732938-241.44811239836966-154.9716854816026-230.09342102776625C120.70279186002175-83.43832211439144 110.43779654828784-120.36024100805002 110.43779654828784-156.66412316612968c0-88.37236003035126 51.596818548980416-166.32637823304688 199.6167478999335-166.32637823304688h813.0071294757716c148.33824077748147 0 199.46340000317105 77.95401820269564 199.4633986223302 166.32637823304688-0.31831280736921813 36.30388215808-10.736654635024854 72.91678130310848-29.04310489795951 101.31629148269562z m-93.40959692993843-142.9757219668912c-13.887251479766913-13.259920304608393-36.62219358460839-23.668969073524934-77.3266870275371-23.668969073524934H309.73623164085217c-40.395473694298595 0-65.64671098424888 11.045674383654978-79.53163988975143 24.30559468826337-8.522408714071439 8.204095906702221-18.940751922567898 22.2446952832316-18.940750541727077 42.131089807486426 0 15.783184593351109 4.419198783167736 31.956709413083125 12.314276322080657 44.58232805805827L536.1632496386318 363.69770726657043c49.54753753863374 79.52931593464626 77.74490781097614 174.32136374802957 77.74490781097614 274.37602377677433V989.9948452981149h201.99595873149366v-351.60280144740074c0-98.4747143865837 24.496116200823046-193.47355001742218 75.30296261914337-274.5944272272329l317.27849959744265-473.43282001035055c7.888107054438188-12.62329468986996 12.525710668905353-29.194128839616788 12.525709288064526-44.977314813808725-0.011617013844279834-20.19541427288494-12.416508253255639-35.50461558784-20.938916967327074-43.711035449647405z m-63.132739754245264 93.73720279604673c0.16264095550156377-0.23699232961843616 0.31831280736921813-1.2523383952118516 0-0.7922947049244443L878.5373146741568 283.0043438989379H551.402748870521L295.532991308821-105.69231183720285c-4.737511590536954-6.626474219646419-7.260775879279669-16.329195290758843-7.260775879279669-25.16759285709432 0-23.671293028630124 19.84921952761679-43.7923559273982 43.20219974887769-43.7923559273982h770.1139480946833c23.671293028630124 0 42.9210619381465 21.22934783679737 42.9210619381465 44.58000410295309 0 7.897401494018108-3.4689082712704518 19.16844981260642-7.56979424706897 25.485905664463537z m-275.20317090407235 219.67507781926975c-4.737511590536954 4.737511590536954-7.260775879279669 11.363985810183376-7.260777260120493 17.98581488130107 0 6.628798174751604 2.8322840373728395 13.259920304608393 7.260777260120493 17.997430514304526 4.728217150957036 4.728217150957036 11.363985810183376 7.251482820540576 17.66982464819621 7.251482820540576 6.6334447041211515 0 13.259920304608393-2.5232656695835387 17.679119087776133-7.251482820540576 4.737511590536954-4.737511590536954 7.260775879279669-11.370956294658109 7.260775879279669-17.997430514304526 0-6.624151645382058-2.841577096111934-13.248303290764117-7.260775879279669-17.98581488130107-4.728217150957036-4.737511590536954-11.045674383654978-7.260775879279669-17.679119087776133-7.260775879279669-6.305838838012838 0-12.939283542133992 2.841577096111934-17.66982464819621 7.260775879279669z m148.02225054437665-186.2127727573017c-4.419198783167736-2.839254521847572-9.14973988922996-4.110180415378435-13.578231731136787-4.110180415378435-7.888107054438188 0-16.092204341981233 4.110180415378435-20.829714551677363 11.363985810183376l-74.15982663958124 113.31457895251226c-7.579088686648889 11.670681603708312-4.419198783167736 27.451543622795064 7.251481439699751 35.03063230944395a25.339528252175796 25.339528252175796 0 0 0 13.887251479766913 4.105533886008888c8.204095906702221 0 16.10149740072033-4.105533886008888 20.520696183888063-11.36630976528856l74.16912107916114-113.30296193866796c7.5674716728046105-11.682298617552593 4.409905724428642-27.465483210903702-7.260777260120493-35.03527883881349z m0 0"  horiz-adv-x="1416" />

    
    <glyph glyph-name="yunpan-copy" unicode="&#59691;" d="M734.8224 36.659200000000055L249.37813333333332 36.659200000000055c-124.14293333333332 0-225.10933333333332 100.96640000000001-225.10933333333332 225.10933333333332 0 115.37066666666666 85.77706666666666 209.85173333333333 198.51946666666666 222.99306666666666 37.1712 126.70293333333333 152.09813333333335 213.64053333333334 285.79839999999996 213.64053333333334 108.4416 0 206.64319999999998-57.821866666666665 259.5498666666667-151.8592 126.02026666666667-16.4864 222.78826666666666-125.30346666666667 222.78826666666666-253.7472C990.9589333333333 151.55200000000002 876.0661333333333 36.659200000000055 734.8224 36.659200000000055zM508.5866666666667 647.2021333333333c-116.0192 0-215.00586666666666-79.05279999999999-240.67413333333332-192.27306666666667-2.56-11.3664-12.492799999999999-19.524266666666666-24.132266666666666-19.933866666666667-94.4128-3.0378666666666665-168.34560000000002-79.12106666666666-168.34560000000002-173.22666666666666 0-95.91466666666666 77.99466666666667-173.90933333333334 173.90933333333334-173.90933333333334l485.47839999999997 0c113.01546666666667 0 204.9365333333333 91.92106666666666 204.9365333333333 204.9365333333333 0 106.59840000000001-83.28533333333333 196.26666666666665-189.67893333333333 204.11733333333333-8.977066666666667 0.6826666666666666-16.930133333333334 6.007466666666666-20.957866666666668 14.028799999999999C686.8309333333333 594.9781333333333 602.3168000000001 647.2021333333333 508.5866666666667 647.2021333333333zM642.7989333333333 296.1066666666667c-6.5536 0-13.1072 2.4917333333333334-18.090666666666667 7.509333333333333l-117.11146666666667 117.11146666666667-117.07733333333334-117.11146666666667c-10.001066666666667-10.001066666666667-26.2144-10.001066666666667-36.215466666666664 0s-10.001066666666667 26.2144 0 36.215466666666664l135.168 135.20213333333334c9.591466666666667 9.591466666666667 26.589866666666666 9.591466666666667 36.215466666666664 0l135.20213333333334-135.20213333333334c10.001066666666667-10.001066666666667 10.001066666666667-26.2144 0-36.215466666666664C655.9061333333334 298.6325333333333 649.3525333333333 296.1066666666667 642.7989333333333 296.1066666666667zM507.59680000000003 170.66666666666652c-14.131199999999998 0-25.6 11.4688-25.6 25.6l0 260.67626666666666c0 14.131199999999998 11.4688 25.6 25.6 25.6s25.6-11.4688 25.6-25.6L533.1967999999999 196.26666666666665C533.1967999999999 182.13546666666662 521.728 170.66666666666652 507.59680000000003 170.66666666666652z"  horiz-adv-x="1024" />

    


  </font>
</defs>
</svg>
